<svg version="1.2" xmlns="http://www.w3.org/2000/svg" viewBox="0 0 1200 1200" width="1200" height="1200">
	<title>6152022_general2_14-ai</title>
	<defs>
		<clipPath clipPathUnits="userSpaceOnUse" id="cp1">
			<path d="m1200 1200h-1200v-1200h1200z"/>
		</clipPath>
		<linearGradient id="g1" x1="786.2" y1="48.4" x2="1457.5" y2="349.6" gradientUnits="userSpaceOnUse">
			<stop offset="0" stop-color="#bb9d76"/>
			<stop offset=".138" stop-color="#bb9d76"/>
			<stop offset=".14" stop-color="#bb9d76"/>
			<stop offset=".316" stop-color="#d4b996"/>
			<stop offset=".32" stop-color="#d5ba97"/>
			<stop offset=".484" stop-color="#cfb38f"/>
			<stop offset=".657" stop-color="#c8ac87"/>
			<stop offset="1" stop-color="#bb9d76"/>
		</linearGradient>
		<linearGradient id="g2" x1="1226.4" y1="319.2" x2="1150.3" y2="1255.9" gradientUnits="userSpaceOnUse">
			<stop offset="0" stop-color="#bb9d76"/>
			<stop offset="1" stop-color="#a99070"/>
		</linearGradient>
		<linearGradient id="g3" x1="1025.5" y1="445" x2="976.7" y2="1046.5" gradientUnits="userSpaceOnUse">
			<stop offset="0" stop-color="#d3d3d3"/>
			<stop offset="1" stop-color="#e9e9e9"/>
		</linearGradient>
		<linearGradient id="g4" x1="924.9" y1="487" x2="887.6" y2="946" gradientUnits="userSpaceOnUse">
			<stop offset="0" stop-color="#d3d3d3"/>
			<stop offset="1" stop-color="#e9e9e9"/>
		</linearGradient>
		<linearGradient id="g5" x1="927.5" y1="503.7" x2="890.2" y2="962.6" gradientUnits="userSpaceOnUse">
			<stop offset="0" stop-color="#d3d3d3"/>
			<stop offset="1" stop-color="#e9e9e9"/>
		</linearGradient>
		<linearGradient id="g6" x1="925.9" y1="493.3" x2="888.6" y2="952.3" gradientUnits="userSpaceOnUse">
			<stop offset="0" stop-color="#bb9d76"/>
			<stop offset="1" stop-color="#bb9d76"/>
		</linearGradient>
		<linearGradient id="g7" x1="924.1" y1="498.2" x2="886.8" y2="957.2" gradientUnits="userSpaceOnUse">
			<stop offset="0" stop-color="#bb9d76"/>
			<stop offset="1" stop-color="#a78d6c"/>
		</linearGradient>
		<linearGradient id="g8" x1="839.6" y1="538.4" x2="813.3" y2="862.6" gradientUnits="userSpaceOnUse">
			<stop offset="0" stop-color="#d3d3d3"/>
			<stop offset="1" stop-color="#e9e9e9"/>
		</linearGradient>
		<linearGradient id="g9" x1="729.5" y1="583.7" x2="716" y2="749.6" gradientUnits="userSpaceOnUse">
			<stop offset="0" stop-color="#d3d3d3"/>
			<stop offset="1" stop-color="#e9e9e9"/>
		</linearGradient>
		<linearGradient id="g10" x1="731.8" y1="598.4" x2="718.3" y2="764.3" gradientUnits="userSpaceOnUse">
			<stop offset="0" stop-color="#d3d3d3"/>
			<stop offset="1" stop-color="#e9e9e9"/>
		</linearGradient>
		<linearGradient id="g11" x1="730.2" y1="588" x2="716.7" y2="754" gradientUnits="userSpaceOnUse">
			<stop offset="0" stop-color="#bb9d76"/>
			<stop offset="1" stop-color="#bb9d76"/>
		</linearGradient>
		<linearGradient id="g12" x1="728.7" y1="590.5" x2="715.2" y2="756.4" gradientUnits="userSpaceOnUse">
			<stop offset="0" stop-color="#bb9d76"/>
			<stop offset=".99" stop-color="#d6bc9b"/>
			<stop offset="1" stop-color="#d6bc9b"/>
		</linearGradient>
		<clipPath clipPathUnits="userSpaceOnUse" id="cp2">
			<path d="m639.83 503.93c0-4.39-1.3-29.55-3.81-68.4-2.51-38.85-2.19-52.22-2.19-52.22-8.84-1.81-17.73-2.34-25.56-2.28-7.84-0.06-16.73 0.47-25.56 2.28 0 0 0.31 13.37-2.2 52.22-2.5 38.85-3.81 64.01-3.81 68.4 0 4.39 7.33 9.78 6.56 14.92 0 0 9.8 5.48 24.25 5.6v0.01q0.38 0 0.76 0 0.37 0 0.76 0v-0.01c14.44-0.12 24.24-5.6 24.24-5.6-0.76-5.14 6.56-10.53 6.56-14.92z"/>
		</clipPath>
		<linearGradient id="g13" x1="604.2" y1="641.4" x2="602.5" y2="516.5" gradientUnits="userSpaceOnUse">
			<stop offset="0" stop-color="#d3d3d3"/>
			<stop offset="1" stop-color="#292929"/>
		</linearGradient>
		<linearGradient id="g14" x1="574.5" y1="182.4" x2="594.1" y2="202.3" gradientUnits="userSpaceOnUse">
			<stop offset="0" stop-color="#64b4ff"/>
			<stop offset="1" stop-color="#00509a"/>
		</linearGradient>
		<linearGradient id="g15" x1="642.1" y1="182.4" x2="622.4" y2="202.3" gradientUnits="userSpaceOnUse">
			<stop offset="0" stop-color="#64b4ff"/>
			<stop offset="1" stop-color="#00509a"/>
		</linearGradient>
		<linearGradient id="g16" x1="597" y1="376.2" x2="619.5" y2="376.2" gradientUnits="userSpaceOnUse">
			<stop offset="0" stop-color="#64b4ff"/>
			<stop offset="1" stop-color="#00509a"/>
		</linearGradient>
		<linearGradient id="g17" x1="598.9" y1="323.8" x2="618" y2="323.8" gradientUnits="userSpaceOnUse">
			<stop offset="0" stop-color="#ffffff"/>
			<stop offset="1" stop-color="#9b9b9b"/>
		</linearGradient>
		<linearGradient id="g18" x1="597.3" y1="389.3" x2="620.1" y2="389.2" gradientUnits="userSpaceOnUse">
			<stop offset="0" stop-color="#ffffff"/>
			<stop offset="1" stop-color="#9b9b9b"/>
		</linearGradient>
		<clipPath clipPathUnits="userSpaceOnUse" id="cp3">
			<path d="m639.83 503.93c0-4.39-1.3-29.55-3.81-68.4-2.51-38.85-2.19-52.22-2.19-52.22-8.84-1.81-17.73-2.34-25.56-2.28-7.84-0.06-16.73 0.47-25.56 2.28 0 0 0.31 13.37-2.2 52.22-2.5 38.85-3.81 64.01-3.81 68.4 0 4.39 7.33 9.78 6.56 14.92 0 0 9.8 5.48 24.25 5.6v0.01q0.38 0 0.76 0 0.37 0 0.76 0v-0.01c14.44-0.12 24.24-5.6 24.24-5.6-0.76-5.14 6.56-10.53 6.56-14.92z"/>
		</clipPath>
		<clipPath clipPathUnits="userSpaceOnUse" id="cp4">
			<path d="m639.83 504.53c0-4.39-1.3-29.56-3.81-68.41-2.51-38.85-2.19-52.21-2.19-52.21-8.84-1.82-17.73-2.35-25.56-2.28-7.84-0.07-16.73 0.46-25.56 2.28 0 0 0.31 13.36-2.2 52.21-2.5 38.85-3.81 64.02-3.81 68.41 0 4.38 7.33 9.77 6.56 14.92 0 0 9.8 5.47 24.25 5.6v0.01q0.38 0 0.76-0.01 0.37 0.01 0.76 0.01v-0.01c14.44-0.13 24.24-5.6 24.24-5.6-0.76-5.15 6.56-10.54 6.56-14.92z"/>
		</clipPath>
		<linearGradient id="g19" x1="587.7" y1="445.4" x2="619" y2="508.4" gradientUnits="userSpaceOnUse">
			<stop offset="0" stop-color="#f4e0ae"/>
			<stop offset="1" stop-color="#613717"/>
		</linearGradient>
		<linearGradient id="g20" x1="558.1" y1="386.5" x2="660.4" y2="386.5" gradientUnits="userSpaceOnUse">
			<stop offset="0" stop-color="#724721"/>
			<stop offset=".478" stop-color="#8e6030"/>
			<stop offset=".749" stop-color="#dbb46d"/>
			<stop offset="1" stop-color="#8e6030"/>
		</linearGradient>
		<linearGradient id="g21" x1="558.1" y1="387.6" x2="660.4" y2="387.6" gradientUnits="userSpaceOnUse">
			<stop offset="0" stop-color="#724721"/>
			<stop offset=".478" stop-color="#8e6030"/>
			<stop offset=".749" stop-color="#dbb46d"/>
			<stop offset="1" stop-color="#8e6030"/>
		</linearGradient>
		<linearGradient id="g22" x1="558.1" y1="468.8" x2="660.4" y2="468.8" gradientUnits="userSpaceOnUse">
			<stop offset="0" stop-color="#724721"/>
			<stop offset=".478" stop-color="#8e6030"/>
			<stop offset=".749" stop-color="#dbb46d"/>
			<stop offset="1" stop-color="#8e6030"/>
		</linearGradient>
		<linearGradient id="g23" x1="558.1" y1="467.8" x2="660.4" y2="467.8" gradientUnits="userSpaceOnUse">
			<stop offset="0" stop-color="#724721"/>
			<stop offset=".478" stop-color="#8e6030"/>
			<stop offset=".749" stop-color="#dbb46d"/>
			<stop offset="1" stop-color="#8e6030"/>
		</linearGradient>
		<radialGradient id="g24" cx="592.4" cy="441.7" r="14.5" gradientUnits="userSpaceOnUse">
			<stop offset="0" stop-color="#724721"/>
			<stop offset=".897" stop-color="#000000"/>
		</radialGradient>
		<radialGradient id="g25" cx="592.4" cy="441.7" r="11.9" gradientUnits="userSpaceOnUse">
			<stop offset="0" stop-color="#8e6030"/>
			<stop offset=".897" stop-color="#000000"/>
		</radialGradient>
		<radialGradient id="g26" cx="594.3" cy="527.9" r="14.5" gradientUnits="userSpaceOnUse">
			<stop offset="0" stop-color="#724721"/>
			<stop offset=".897" stop-color="#000000"/>
		</radialGradient>
		<radialGradient id="g27" cx="594.3" cy="527.9" r="11.9" gradientUnits="userSpaceOnUse">
			<stop offset="0" stop-color="#8e6030"/>
			<stop offset=".897" stop-color="#000000"/>
		</radialGradient>
		<clipPath clipPathUnits="userSpaceOnUse" id="cp5">
			<path d="m725.09 498.99c1.07-4.26 5.96-28.98 13.02-67.26 7.07-38.29 10.64-51.17 10.64-51.17-8.13-3.92-16.62-6.61-24.23-8.46-7.58-1.97-16.33-3.63-25.34-4.03 0 0-2.97 13.03-14.89 50.09-11.93 37.06-19.34 61.14-20.42 65.4-1.07 4.25 4.72 11.27 2.72 16.07 0 0 8.16 7.71 22.14 11.36v0.01q0.37 0.09 0.73 0.18 0.37 0.1 0.74 0.19v-0.01c14.04 3.41 24.88 0.49 24.88 0.49 0.52-5.17 8.94-8.61 10.01-12.86z"/>
		</clipPath>
		<linearGradient id="g28" x1="655" y1="627.5" x2="683.8" y2="506.1" gradientUnits="userSpaceOnUse">
			<stop offset="0" stop-color="#d3d3d3"/>
			<stop offset="1" stop-color="#292929"/>
		</linearGradient>
		<linearGradient id="g29" x1="743.3" y1="171.8" x2="756.8" y2="194.8" gradientUnits="userSpaceOnUse">
			<stop offset="0" stop-color="#64b4ff"/>
			<stop offset="1" stop-color="#00509a"/>
		</linearGradient>
		<linearGradient id="g30" x1="805.8" y1="187.8" x2="781.9" y2="202.3" gradientUnits="userSpaceOnUse">
			<stop offset="0" stop-color="#64b4ff"/>
			<stop offset="1" stop-color="#00509a"/>
		</linearGradient>
		<linearGradient id="g31" x1="714.8" y1="364.7" x2="736.5" y2="370.2" gradientUnits="userSpaceOnUse">
			<stop offset="0" stop-color="#64b4ff"/>
			<stop offset="1" stop-color="#00509a"/>
		</linearGradient>
		<linearGradient id="g32" x1="729.4" y1="314.3" x2="747.9" y2="319" gradientUnits="userSpaceOnUse">
			<stop offset="0" stop-color="#ffffff"/>
			<stop offset="1" stop-color="#9b9b9b"/>
		</linearGradient>
		<linearGradient id="g33" x1="711.9" y1="377.5" x2="734" y2="382.9" gradientUnits="userSpaceOnUse">
			<stop offset="0" stop-color="#ffffff"/>
			<stop offset="1" stop-color="#9b9b9b"/>
		</linearGradient>
		<clipPath clipPathUnits="userSpaceOnUse" id="cp6">
			<path d="m725.09 498.99c1.07-4.26 5.96-28.98 13.02-67.26 7.07-38.29 10.64-51.17 10.64-51.17-8.13-3.92-16.62-6.61-24.23-8.46-7.58-1.97-16.33-3.63-25.34-4.03 0 0-2.97 13.03-14.89 50.09-11.93 37.06-19.34 61.14-20.42 65.4-1.07 4.25 4.72 11.27 2.72 16.07 0 0 8.16 7.71 22.14 11.36v0.01q0.37 0.09 0.73 0.18 0.37 0.1 0.74 0.19v-0.01c14.04 3.41 24.88 0.49 24.88 0.49 0.52-5.17 8.94-8.61 10.01-12.86z"/>
		</clipPath>
		<clipPath clipPathUnits="userSpaceOnUse" id="cp7">
			<path d="m724.94 499.57c1.08-4.26 5.96-28.98 13.03-67.27 7.06-38.28 10.63-51.16 10.63-51.16-8.13-3.92-16.62-6.61-24.23-8.46-7.57-1.98-16.32-3.64-25.34-4.04 0 0-2.96 13.04-14.89 50.1-11.92 37.06-19.34 61.14-20.41 65.4-1.08 4.25 4.71 11.27 2.71 16.07 0 0 8.17 7.7 22.14 11.36q0.37 0.1 0.74 0.19 0.36 0.09 0.74 0.19v-0.01c14.04 3.41 24.88 0.49 24.88 0.49 0.51-5.18 8.93-8.61 10-12.86z"/>
		</clipPath>
		<linearGradient id="g34" x1="689" y1="429.4" x2="703.9" y2="498.2" gradientUnits="userSpaceOnUse">
			<stop offset="0" stop-color="#f4e0ae"/>
			<stop offset="1" stop-color="#613717"/>
		</linearGradient>
		<linearGradient id="g35" x1="667.1" y1="372.3" x2="771.9" y2="372.3" gradientUnits="userSpaceOnUse">
			<stop offset="0" stop-color="#724721"/>
			<stop offset=".478" stop-color="#8e6030"/>
			<stop offset=".749" stop-color="#dbb46d"/>
			<stop offset="1" stop-color="#8e6030"/>
		</linearGradient>
		<linearGradient id="g36" x1="666.9" y1="373.3" x2="771.6" y2="373.3" gradientUnits="userSpaceOnUse">
			<stop offset="0" stop-color="#724721"/>
			<stop offset=".478" stop-color="#8e6030"/>
			<stop offset=".749" stop-color="#dbb46d"/>
			<stop offset="1" stop-color="#8e6030"/>
		</linearGradient>
		<linearGradient id="g37" x1="648.8" y1="445" x2="753.5" y2="445" gradientUnits="userSpaceOnUse">
			<stop offset="0" stop-color="#724721"/>
			<stop offset=".478" stop-color="#8e6030"/>
			<stop offset=".749" stop-color="#dbb46d"/>
			<stop offset="1" stop-color="#8e6030"/>
		</linearGradient>
		<linearGradient id="g38" x1="649.1" y1="444" x2="753.8" y2="444" gradientUnits="userSpaceOnUse">
			<stop offset="0" stop-color="#724721"/>
			<stop offset=".478" stop-color="#8e6030"/>
			<stop offset=".749" stop-color="#dbb46d"/>
			<stop offset="1" stop-color="#8e6030"/>
		</linearGradient>
		<radialGradient id="g39" cx="694.3" cy="427.1" r="14.5" gradientUnits="userSpaceOnUse">
			<stop offset="0" stop-color="#724721"/>
			<stop offset=".897" stop-color="#000000"/>
		</radialGradient>
		<radialGradient id="g40" cx="694.3" cy="427.1" r="11.9" gradientUnits="userSpaceOnUse">
			<stop offset="0" stop-color="#8e6030"/>
			<stop offset=".897" stop-color="#000000"/>
		</radialGradient>
		<radialGradient id="g41" cx="675.1" cy="511.1" r="14.5" gradientUnits="userSpaceOnUse">
			<stop offset="0" stop-color="#724721"/>
			<stop offset=".897" stop-color="#000000"/>
		</radialGradient>
		<radialGradient id="g42" cx="675.1" cy="511.1" r="11.9" gradientUnits="userSpaceOnUse">
			<stop offset="0" stop-color="#8e6030"/>
			<stop offset=".897" stop-color="#000000"/>
		</radialGradient>
		<clipPath clipPathUnits="userSpaceOnUse" id="cp8">
			<path d="m566.54 527.06c-1.18-4.22-9.18-28.12-22.01-64.88-12.82-36.76-16.1-49.72-16.1-49.72-9 0.62-17.71 2.5-25.24 4.66-7.56 2.03-15.98 4.93-24.01 9.04 0 0 3.88 12.79 11.88 50.89 7.99 38.1 13.48 62.7 14.65 66.93 1.18 4.23 9.68 7.45 10.32 12.61 0 0 10.91 2.66 24.86-1.09v0.01q0.37-0.11 0.74-0.21 0.36-0.1 0.73-0.2v-0.01c13.88-3.99 21.85-11.9 21.85-11.9-2.11-4.75 3.5-11.9 2.33-16.13z"/>
		</clipPath>
		<linearGradient id="g43" x1="569" y1="668.9" x2="533.9" y2="549.2" gradientUnits="userSpaceOnUse">
			<stop offset="0" stop-color="#d3d3d3"/>
			<stop offset="1" stop-color="#292929"/>
		</linearGradient>
		<linearGradient id="g44" x1="417.5" y1="234.9" x2="441.7" y2="248.7" gradientUnits="userSpaceOnUse">
			<stop offset="0" stop-color="#64b4ff"/>
			<stop offset="1" stop-color="#00509a"/>
		</linearGradient>
		<linearGradient id="g45" x1="479.3" y1="217.3" x2="466.4" y2="240.6" gradientUnits="userSpaceOnUse">
			<stop offset="0" stop-color="#64b4ff"/>
			<stop offset="1" stop-color="#00509a"/>
		</linearGradient>
		<linearGradient id="g46" x1="491.2" y1="415.5" x2="512.7" y2="409.5" gradientUnits="userSpaceOnUse">
			<stop offset="0" stop-color="#64b4ff"/>
			<stop offset="1" stop-color="#00509a"/>
		</linearGradient>
		<linearGradient id="g47" x1="478.8" y1="364.5" x2="497.2" y2="359.4" gradientUnits="userSpaceOnUse">
			<stop offset="0" stop-color="#ffffff"/>
			<stop offset="1" stop-color="#9b9b9b"/>
		</linearGradient>
		<linearGradient id="g48" x1="494.9" y1="428" x2="516.8" y2="421.8" gradientUnits="userSpaceOnUse">
			<stop offset="0" stop-color="#ffffff"/>
			<stop offset="1" stop-color="#9b9b9b"/>
		</linearGradient>
		<clipPath clipPathUnits="userSpaceOnUse" id="cp9">
			<path d="m566.54 527.06c-1.18-4.22-9.18-28.12-22.01-64.88-12.82-36.76-16.1-49.72-16.1-49.72-9 0.62-17.71 2.5-25.24 4.66-7.56 2.03-15.98 4.93-24.01 9.04 0 0 3.88 12.79 11.88 50.89 7.99 38.1 13.48 62.7 14.65 66.93 1.18 4.23 9.68 7.45 10.32 12.61 0 0 10.91 2.66 24.86-1.09v0.01q0.37-0.11 0.74-0.21 0.36-0.1 0.73-0.2v-0.01c13.88-3.99 21.85-11.9 21.85-11.9-2.11-4.75 3.5-11.9 2.33-16.13z"/>
		</clipPath>
		<clipPath clipPathUnits="userSpaceOnUse" id="cp10">
			<path d="m566.7 527.64c-1.18-4.23-9.18-28.13-22.01-64.89-12.82-36.75-16.1-49.71-16.1-49.71-9 0.62-17.71 2.49-25.24 4.65-7.56 2.04-15.98 4.93-24.01 9.05 0 0 3.88 12.79 11.88 50.89 7.99 38.1 13.48 62.7 14.65 66.92 1.18 4.23 9.68 7.46 10.32 12.62 0 0 10.91 2.65 24.86-1.1v0.01q0.37-0.1 0.74-0.21 0.36-0.1 0.73-0.2v-0.01c13.88-3.99 21.85-11.89 21.85-11.89-2.11-4.75 3.5-11.91 2.33-16.13z"/>
		</clipPath>
		<linearGradient id="g49" x1="500.6" y1="484.7" x2="547.4" y2="536.9" gradientUnits="userSpaceOnUse">
			<stop offset="0" stop-color="#f4e0ae"/>
			<stop offset="1" stop-color="#613717"/>
		</linearGradient>
		<linearGradient id="g50" x1="458.5" y1="415.2" x2="563" y2="415.2" gradientUnits="userSpaceOnUse">
			<stop offset="0" stop-color="#724721"/>
			<stop offset=".478" stop-color="#8e6030"/>
			<stop offset=".749" stop-color="#dbb46d"/>
			<stop offset="1" stop-color="#8e6030"/>
		</linearGradient>
		<linearGradient id="g51" x1="458.7" y1="416.2" x2="563.3" y2="416.2" gradientUnits="userSpaceOnUse">
			<stop offset="0" stop-color="#724721"/>
			<stop offset=".478" stop-color="#8e6030"/>
			<stop offset=".749" stop-color="#dbb46d"/>
			<stop offset="1" stop-color="#8e6030"/>
		</linearGradient>
		<linearGradient id="g52" x1="478.5" y1="488.3" x2="583.2" y2="488.3" gradientUnits="userSpaceOnUse">
			<stop offset="0" stop-color="#724721"/>
			<stop offset=".478" stop-color="#8e6030"/>
			<stop offset=".749" stop-color="#dbb46d"/>
			<stop offset="1" stop-color="#8e6030"/>
		</linearGradient>
		<linearGradient id="g53" x1="478.3" y1="487.3" x2="582.9" y2="487.3" gradientUnits="userSpaceOnUse">
			<stop offset="0" stop-color="#724721"/>
			<stop offset=".478" stop-color="#8e6030"/>
			<stop offset=".749" stop-color="#dbb46d"/>
			<stop offset="1" stop-color="#8e6030"/>
		</linearGradient>
		<radialGradient id="g54" cx="504.1" cy="479.9" r="14.5" gradientUnits="userSpaceOnUse">
			<stop offset="0" stop-color="#724721"/>
			<stop offset=".897" stop-color="#000000"/>
		</radialGradient>
		<radialGradient id="g55" cx="504.1" cy="479.9" r="11.9" gradientUnits="userSpaceOnUse">
			<stop offset="0" stop-color="#8e6030"/>
			<stop offset=".897" stop-color="#000000"/>
		</radialGradient>
		<radialGradient id="g56" cx="529.1" cy="562.4" r="14.5" gradientUnits="userSpaceOnUse">
			<stop offset="0" stop-color="#724721"/>
			<stop offset=".897" stop-color="#000000"/>
		</radialGradient>
		<radialGradient id="g57" cx="529.1" cy="562.4" r="11.9" gradientUnits="userSpaceOnUse">
			<stop offset="0" stop-color="#8e6030"/>
			<stop offset=".897" stop-color="#000000"/>
		</radialGradient>
	</defs>
	<style>
		.s0 { fill: url(#g1) } 
		.s1 { fill: url(#g2) } 
		.s2 { fill: url(#g3) } 
		.s3 { mix-blend-mode: screen;fill: url(#g4) } 
		.s4 { mix-blend-mode: screen;fill: url(#g5) } 
		.s5 { fill: url(#g6) } 
		.s6 { fill: url(#g7) } 
		.s7 { fill: url(#g8) } 
		.s8 { mix-blend-mode: screen;fill: url(#g9) } 
		.s9 { mix-blend-mode: screen;fill: url(#g10) } 
		.s10 { mix-blend-mode: multiply;fill: url(#g11) } 
		.s11 { fill: url(#g12) } 
		.s12 { fill: url(#g13) } 
		.s13 { fill: url(#g14) } 
		.s14 { fill: url(#g15) } 
		.s15 { fill: url(#g16) } 
		.s16 { fill: url(#g17) } 
		.s17 { fill: url(#g18) } 
		.s18 { fill: url(#g19) } 
		.s19 { mix-blend-mode: multiply;fill: url(#g20) } 
		.s20 { mix-blend-mode: multiply;fill: url(#g21) } 
		.s21 { mix-blend-mode: multiply;fill: url(#g22) } 
		.s22 { mix-blend-mode: multiply;fill: url(#g23) } 
		.s23 { mix-blend-mode: screen;fill: url(#g24) } 
		.s24 { mix-blend-mode: color-dodge;fill: url(#g25) } 
		.s25 { mix-blend-mode: screen;fill: url(#g26) } 
		.s26 { mix-blend-mode: color-dodge;fill: url(#g27) } 
		.s27 { fill: url(#g28) } 
		.s28 { fill: url(#g29) } 
		.s29 { fill: url(#g30) } 
		.s30 { fill: url(#g31) } 
		.s31 { fill: url(#g32) } 
		.s32 { fill: url(#g33) } 
		.s33 { fill: url(#g34) } 
		.s34 { mix-blend-mode: multiply;fill: url(#g35) } 
		.s35 { mix-blend-mode: multiply;fill: url(#g36) } 
		.s36 { mix-blend-mode: multiply;fill: url(#g37) } 
		.s37 { mix-blend-mode: multiply;fill: url(#g38) } 
		.s38 { mix-blend-mode: screen;fill: url(#g39) } 
		.s39 { mix-blend-mode: color-dodge;fill: url(#g40) } 
		.s40 { mix-blend-mode: screen;fill: url(#g41) } 
		.s41 { mix-blend-mode: color-dodge;fill: url(#g42) } 
		.s42 { fill: url(#g43) } 
		.s43 { fill: url(#g44) } 
		.s44 { fill: url(#g45) } 
		.s45 { fill: url(#g46) } 
		.s46 { fill: url(#g47) } 
		.s47 { fill: url(#g48) } 
		.s48 { fill: url(#g49) } 
		.s49 { mix-blend-mode: multiply;fill: url(#g50) } 
		.s50 { mix-blend-mode: multiply;fill: url(#g51) } 
		.s51 { mix-blend-mode: multiply;fill: url(#g52) } 
		.s52 { mix-blend-mode: multiply;fill: url(#g53) } 
		.s53 { mix-blend-mode: screen;fill: url(#g54) } 
		.s54 { mix-blend-mode: color-dodge;fill: url(#g55) } 
		.s55 { mix-blend-mode: screen;fill: url(#g56) } 
		.s56 { mix-blend-mode: color-dodge;fill: url(#g57) } 
	</style>
	<g id="BACKGROUND">
	</g>
	<g id="Layer 3">
	</g>
	<g id="OBJECT">
		<g id="&lt;Clip Group&gt;" clip-path="url(#cp1)">
			<g id="&lt;Group&gt;">
				<g id="&lt;Group&gt;">
					<g id="&lt;Group&gt;" style="mix-blend-mode: multiply">
					</g>
				</g>
				<g id="&lt;Group&gt;">
					<g id="&lt;Group&gt;">
						<path id="&lt;Path&gt;" class="s0" d="m567.6 1162.4c-259.1-18.9-454.6-196.9-436.5-397.7 18.1-200.7 242.8-348.2 502-329.4 259.2 18.9 469.7 132.4 436.5 397.7-25 200-242.8 348.2-502 329.4z"/>
						<g id="&lt;Group&gt;">
							<path id="&lt;Path&gt;" class="s1" d="m564.6 1103.1c-259.1-18.9-454.6-196.9-436.5-397.7 18.1-200.7 242.8-348.2 502-329.4 259.2 18.8 454.6 196.9 436.5 397.6-18 200.8-242.8 348.3-502 329.5z"/>
							<path id="&lt;Path&gt;" class="s2" d="m576.4 1014c-219.7-16.1-385.8-163.6-370.8-329.6 15-166 205.2-287.5 425-271.5 219.7 16.1 385.7 163.7 370.7 329.6-14.9 166-205.2 287.5-424.9 271.5z"/>
							<path id="&lt;Path&gt;" class="s3" d="m581.9 921.2c-167.8-12.3-294.6-124.9-283.2-251.6 11.4-126.6 156.7-219.3 324.5-207.1 167.9 12.3 294.6 124.9 283.2 251.5-11.4 126.7-156.7 219.4-324.5 207.2z"/>
							<path id="&lt;Path&gt;" class="s4" d="m584.6 937.8c-167.8-12.2-294.6-124.9-283.2-251.5 11.4-126.7 156.7-219.4 324.5-207.1 167.8 12.2 294.6 124.8 283.2 251.5-11.4 126.6-156.7 219.4-324.5 207.1z"/>
							<path id="&lt;Path&gt;" class="s5" d="m582.9 927.5c-167.8-12.3-294.6-124.9-283.2-251.6 11.5-126.6 156.7-219.3 324.6-207.1 167.8 12.3 294.5 124.9 283.1 251.5-11.4 126.7-156.7 219.4-324.5 207.2z"/>
							<path id="&lt;Path&gt;" class="s6" d="m581.1 932.3c-167.8-12.2-294.6-124.8-283.1-251.5 11.4-126.6 156.7-219.4 324.5-207.1 167.8 12.2 294.6 124.9 283.2 251.5-11.5 126.7-156.7 219.4-324.6 207.1z"/>
							<path id="&lt;Path&gt;" class="s7" d="m590.3 844.5c-122.4-9-215.1-88.8-207-178.2 8.1-89.5 113.9-154.8 236.3-145.8 122.4 9 215.1 88.8 207 178.3-8.1 89.4-113.9 154.7-236.3 145.7z"/>
							<path id="&lt;Path&gt;" class="s8" d="m601.2 740.3c-63.1-4.6-110.8-45.5-106.7-91.3 4.2-45.8 58.6-79.1 121.7-74.5 63 4.6 110.8 45.5 106.6 91.3-4.1 45.8-58.6 79.1-121.6 74.5z"/>
							<path id="&lt;Path&gt;" class="s9" d="m603.5 755c-63-4.7-110.8-45.5-106.7-91.3 4.2-45.8 58.7-79.2 121.7-74.5 63 4.6 110.8 45.5 106.6 91.2-4.1 45.8-58.6 79.2-121.6 74.6z"/>
							<path id="&lt;Path&gt;" class="s10" d="m601.9 744.6c-63.1-4.6-110.8-45.5-106.7-91.2 4.1-45.8 58.6-79.2 121.6-74.6 63.1 4.7 110.8 45.5 106.7 91.3-4.1 45.8-58.6 79.2-121.6 74.5z"/>
							<path id="&lt;Path&gt;" class="s11" d="m600.4 747.1c-63-4.7-110.8-45.5-106.7-91.3 4.2-45.8 58.7-79.2 121.7-74.5 63 4.6 110.8 45.4 106.6 91.2-4.1 45.8-58.6 79.2-121.6 74.6z"/>
						</g>
					</g>
					<g id="&lt;Group&gt;">
						<g id="&lt;Group&gt;">
							<g id="&lt;Clip Group&gt;" clip-path="url(#cp2)">
							</g>
						</g>
						<path id="&lt;Mesh&gt;" class="s12" d="m605.5 667.1c0.1 0.9 0.5 1.7 1 2.3-0.9-10-1.6-19.3-2.3-28-1.3-0.3-2.5-0.8-3.1-1.4 1.2 8.5 2.7 17.4 4.4 27.1zm-4.4-27.1c0.6 0.6 1.8 1.1 3.1 1.4-1.3-17-1.7-32.9-1.7-49.5q-2.6 0-5.1 0c0 16.6 1.4 31.5 3.7 48.1zm-3.7-48.1q2.5 0 5.1 0 0-26 0-51.9-2.6 0-5.1 0 0 25.9 0 51.9zm0-51.9q2.5 0 5.1 0 0-11.7 0-23.5-2.6 0-5.1 0 0 11.8 0 23.5zm9.1 129.4c0.6 0.7 1.2 1.1 1.7 1.1 0-10.2 0-19.7 0-28.7-0.8 0-2.5-0.1-4-0.4 0.7 8.7 1.4 18 2.3 28zm-2.3-28c1.5 0.3 3.2 0.4 4 0.4 0-17.5 0-33.3 0-49.9q-2.9 0-5.7 0c0 16.6 0.4 32.5 1.7 49.5zm-1.7-49.5q2.8 0 5.7 0 0-26 0-51.9-2.9 0-5.7 0 0 25.9 0 51.9zm0-51.9q2.8 0 5.7 0 0-11.7 0-23.5-2.9 0-5.7 0 0 11.8 0 23.5zm5.7 130.5c0.5 0 1.1-0.4 1.7-1 0.8-9.9 1.5-19.2 2.1-28-1.5 0.3-2.9 0.3-3.8 0.3 0 9 0 18.5 0 28.7zm0-28.7c0.9 0 2.3 0 3.8-0.3 1.1-17 1.6-33 1.6-49.6q-2.7 0-5.4 0c0 16.6 0 32.4 0 49.9zm0-49.9q2.7 0 5.4 0 0-26 0-51.9-2.7 0-5.4 0 0 25.9 0 51.9zm0-51.9q2.7 0 5.4 0 0-11.7 0-23.5-2.7 0-5.4 0 0 11.8 0 23.5zm1.7 129.5c0.6-0.6 1-1.4 1.2-2.4 1.6-9.6 3.1-18.5 4.3-26.9-0.6 0.7-2 1.1-3.4 1.3-0.6 8.8-1.3 18.1-2.1 28zm2.1-28c1.4-0.2 2.8-0.6 3.4-1.3 2.3-16.6 3.7-31.7 3.7-48.3q-2.7 0-5.5 0c0 16.6-0.5 32.6-1.6 49.6zm1.6-49.6q2.8 0 5.5 0 0-26 0-51.9-2.7 0-5.5 0 0 25.9 0 51.9zm0-51.9q2.8 0 5.5 0 0-11.7 0-23.5-2.7 0-5.5 0 0 11.8 0 23.5z"/>
						<g id="&lt;Group&gt;">
							<path id="&lt;Mesh&gt;" class="s13" d="m574.3 182.4c-13.8-16.4-29.5-41.2-30.5-69.4-0.3-9.9 0.6-18.8 2.3-26.8 6.5-2.4 12.5-1 18.2 1.6-5.7 35.8 3.2 71.3 19.3 104.8-2.9-2.9-6-6.3-9.3-10.2zm9.3 10.2c-16.1-33.5-25-69-19.3-104.8 5 2.4 9.7 5.8 14 8.3-4.1 34.9 2.4 68.9 12 102.9-1.9-1.7-4.2-3.9-6.7-6.4zm6.7 6.4c-9.6-34-16.1-68-12-102.9 4.2 2.5 8.3 4.9 12.2 6.9-3 33.4-0.2 66.5 3.6 99.4-0.9-0.8-2.2-1.9-3.8-3.4zm3.8 3.4c-3.8-32.9-6.6-66-3.6-99.4 3.9 2.1 7.6 3.9 10.9 5q-3 47.8-5.9 95.6c0 0-0.5-0.4-1.4-1.2zm-48-116.2c3.3-15.8 9.7-27.9 15.5-36.2 2.8-3.2 6.9-7.2 11.3-4.4-3.4 11.3-6.8 25.5-8.6 42.2-5.7-2.6-11.7-4-18.2-1.6zm18.2 1.6c1.8-16.7 5.2-30.9 8.6-42.2 3.8 2.3 7.8 5.6 11.5 7.9-2.4 12.4-4.5 26.9-6.1 42.6-4.3-2.5-9-5.9-14-8.3zm14 8.3c1.6-15.7 3.7-30.2 6.1-42.6 3.1 2.1 6.7 4.9 9.8 6.8-1.4 13.3-2.5 28.1-3.7 42.7-3.9-2-8-4.4-12.2-6.9zm12.2 6.9c1.2-14.6 2.3-29.4 3.7-42.7 3.2 2 6.6 4.8 9.7 6.6q-1.2 20.6-2.5 41.1c-3.3-1.1-7-2.9-10.9-5zm-28.9-53c1.5-2.2 3-4.2 4.4-5.9 4.4-5.4 7.8-8.1 7.8-8.1q0.9 0.6 1.8 1.2-1.3 3.9-2.7 8.4c-4.4-2.8-8.5 1.2-11.3 4.4zm11.3-4.4q1.4-4.5 2.7-8.4 5.4 3.5 10.7 6.9-1 4.5-1.9 9.4c-3.7-2.3-7.7-5.6-11.5-7.9zm11.5 7.9q0.9-4.9 1.9-9.4 4.6 3 9.1 5.9-0.6 5-1.2 10.3c-3.1-1.9-6.7-4.7-9.8-6.8zm9.8 6.8q0.6-5.3 1.2-10.3 4.6 3 9.2 6-0.3 5.5-0.7 10.9c-3.1-1.8-6.5-4.6-9.7-6.6z"/>
							<path id="&lt;Mesh&gt;" class="s14" d="m642.2 182.4c13.9-16.4 29.6-41.2 30.5-69.4 0.4-9.9-0.6-18.8-2.2-26.8-6.5-2.4-12.6-1-18.2 1.6 5.6 35.8-3.2 71.3-19.3 104.8 2.8-2.9 5.9-6.3 9.2-10.2zm-9.2 10.2c16.1-33.5 24.9-69 19.3-104.8-5.1 2.4-9.8 5.8-14.1 8.3 4.1 34.9-2.4 68.9-11.9 102.9 1.8-1.7 4.1-3.9 6.7-6.4zm-6.7 6.4c9.5-34 16-68 11.9-102.9-4.2 2.5-8.3 4.9-12.2 6.9 3.1 33.4 0.3 66.5-3.5 99.4 0.9-0.8 2.2-1.9 3.8-3.4zm-3.8 3.4c3.8-32.9 6.6-66 3.5-99.4-3.9 2.1-7.5 3.9-10.9 5q3 47.8 5.9 95.6c0 0 0.6-0.4 1.5-1.2zm48-116.2c-3.4-15.8-9.8-27.9-15.6-36.2-2.8-3.2-6.8-7.2-11.3-4.4 3.4 11.3 6.8 25.5 8.7 42.2 5.6-2.6 11.7-4 18.2-1.6zm-18.2 1.6c-1.9-16.7-5.3-30.9-8.7-42.2-3.7 2.3-7.8 5.6-11.4 7.9 2.3 12.4 4.5 26.9 6 42.6 4.3-2.5 9-5.9 14.1-8.3zm-14.1 8.3c-1.5-15.7-3.7-30.2-6-42.6-3.2 2.1-6.7 4.9-9.9 6.8 1.5 13.3 2.5 28.1 3.7 42.7 3.9-2 8-4.4 12.2-6.9zm-12.2 6.9c-1.2-14.6-2.2-29.4-3.7-42.7-3.1 2-6.6 4.8-9.7 6.6q1.3 20.6 2.5 41.1c3.4-1.1 7-2.9 10.9-5zm28.9-53c-1.5-2.2-3-4.2-4.4-5.9-4.4-5.4-7.7-8.1-7.7-8.1q-1 0.6-1.9 1.2 1.3 3.9 2.7 8.4c4.5-2.8 8.5 1.2 11.3 4.4zm-11.3-4.4q-1.4-4.5-2.7-8.4-5.3 3.5-10.7 6.9 1 4.5 2 9.4c3.6-2.3 7.7-5.6 11.4-7.9zm-11.4 7.9q-1-4.9-2-9.4-4.5 3-9.1 5.9 0.7 5 1.2 10.3c3.2-1.9 6.7-4.7 9.9-6.8zm-9.9 6.8q-0.5-5.3-1.2-10.3-4.6 3-9.2 6 0.4 5.5 0.7 10.9c3.1-1.8 6.6-4.6 9.7-6.6z"/>
						</g>
						<g id="&lt;Group&gt;">
							<path id="&lt;Mesh&gt;" class="s15" d="m585.5 389.2q5.6 0 11.2 0 0.2-6.5 0.3-13c-3.5 0.1-7.1 0.1-10.8 0.1q-0.4 6.5-0.7 12.9zm0.7-12.9c3.7 0 7.3 0 10.8-0.1 0.6-20.9 1.1-41.9 1.6-62.8-2.9 0.3-5.8 0.6-9.2 0.7q-1.6 31.1-3.2 62.2zm3.2-62.2c3.4-0.1 6.3-0.4 9.2-0.7 0.6-21.9 1-43.9 1.6-65.7-2.3 0.5-4.6 1-7.4 1.4q-1.7 32.5-3.4 65zm3.4-65c2.8-0.4 5.1-0.9 7.4-1.4 0.8-29.8 1.2-59.9 1.9-89.6-1.6 0.7-3.1 1.7-4.7 2.5q-2.3 44.3-4.6 88.5zm4.6-88.5c1.6-0.8 3.1-1.8 4.7-2.5 0.8-28 1.1-56.7 1.9-84.7-1.2 0.9-2.1 2.1-2.2 3.8q-2.2 41.7-4.4 83.4zm4.4-83.4c0.1-1.7 1-2.9 2.2-3.8 0.1-7 0.2-13.9 0.4-21-0.9 1.1-1.6 2.4-1.5 4q-0.6 10.4-1.1 20.8zm-5.1 312q5.8 0 11.6 0 0-6.5-0.1-13.1c-3.8 0-7.5 0.1-11.2 0.1q-0.1 6.5-0.3 13zm0.3-13c3.7 0 7.4-0.1 11.2-0.1 0-21.1 0-42.2 0-63.2-3.5 0-6.6 0.2-9.6 0.5-0.5 20.9-1 41.9-1.6 62.8zm1.6-62.8c3-0.3 6.1-0.5 9.6-0.5-0.1-22.1 0-44.1-0.1-66.2-3.1 0.1-5.5 0.5-7.9 1-0.6 21.8-1 43.8-1.6 65.7zm1.6-65.7c2.4-0.5 4.8-0.9 7.9-1 0-30 0.1-59.9 0.1-89.9-2.4 0-4.3 0.6-6.1 1.3-0.7 29.7-1.1 59.8-1.9 89.6zm1.9-89.6c1.8-0.7 3.7-1.3 6.1-1.3-0.1-28.2 0.1-56.5 0.1-84.7-1.6 0-3.1 0.4-4.3 1.3-0.8 28-1.1 56.7-1.9 84.7zm1.9-84.7c1.2-0.9 2.7-1.3 4.3-1.3q-0.1-10.7-0.1-21.4c-1.4 0.1-2.8 0.7-3.8 1.7-0.2 7.1-0.3 14-0.4 21zm4.3 315.8q5.7 0 11.5 0-0.1-6.5-0.3-13-5.6-0.1-11.3-0.1 0.1 6.6 0.1 13.1zm-0.1-13.1q5.7 0 11.3 0.1c-0.6-20.9-1.1-41.9-1.7-62.8-3.2-0.3-6.4-0.6-9.6-0.5 0 21 0 42.1 0 63.2zm0-63.2c3.2-0.1 6.4 0.2 9.6 0.5-0.6-21.9-1.1-43.9-1.7-65.8-2.6-0.5-5.2-0.9-8-0.9 0.1 22.1 0 44.1 0.1 66.2zm-0.1-66.2c2.8 0 5.4 0.4 8 0.9-0.8-29.7-1.3-59.9-2.1-89.6-1.8-0.8-3.7-1.2-5.8-1.2 0 30-0.1 59.9-0.1 89.9zm0.1-89.9c2.1 0 4 0.4 5.8 1.2-0.8-28-0.6-56.6-1.4-84.6-1.2-0.9-2.8-1.3-4.3-1.3 0 28.2-0.2 56.5-0.1 84.7zm0.1-84.7c1.5 0 3.1 0.4 4.3 1.3-0.2-7-0.3-13.9-0.5-20.9-1-1.1-2.3-1.8-3.9-1.8q0 10.7 0.1 21.4zm11.5 317.1q5.6 0 11.3 0-0.4-6.4-0.7-12.9-5.5 0-10.9-0.1 0.2 6.5 0.3 13zm-0.3-13q5.4 0.1 10.9 0.1-1.6-31.1-3.3-62.2c-3.1-0.1-6.2-0.5-9.3-0.7 0.6 20.9 1.1 41.9 1.7 62.8zm-1.7-62.8c3.1 0.2 6.2 0.6 9.3 0.7q-1.7-32.5-3.4-65c-2.6-0.4-5.1-1-7.6-1.5 0.6 21.9 1.1 43.9 1.7 65.8zm-1.7-65.8c2.5 0.5 5 1.1 7.6 1.5q-2.3-44.2-4.6-88.5c-1.7-0.9-3.4-1.9-5.1-2.6 0.8 29.7 1.3 59.9 2.1 89.6zm-2.1-89.6c1.7 0.7 3.4 1.7 5.1 2.6q-2.2-41.7-4.3-83.4c-0.2-1.7-1-2.9-2.2-3.8 0.8 28 0.6 56.6 1.4 84.6zm-1.4-84.6c1.2 0.9 2 2.1 2.2 3.8q-0.6-10.4-1.1-20.8c0-1.5-0.6-2.9-1.6-3.9 0.2 7 0.3 13.9 0.5 20.9z"/>
							<g id="&lt;Group&gt;">
								<path id="&lt;Mesh&gt;" class="s16" d="m588.8 325.4c2.2-0.5 7.4-1.2 10.1-1.6 0.1-3.1 0-6.1 0.1-9.3-2.7 0.4-7 0.8-9.7 1.5q-0.2 4.7-0.5 9.4zm0.5-9.4c2.7-0.7 7-1.1 9.7-1.5 0.1-2.9 0.2-6.2 0.3-9.2-2.8 0.4-6.4 1-9.5 1.8q-0.3 4.4-0.5 8.9zm9.6 7.8c3.5-0.5 4.8-0.5 9.1-0.5q0.1-4.8 0.1-9.6c-3.4 0-5.5 0.4-9.1 0.8-0.1 3.2 0 6.2-0.1 9.3zm0.1-9.3c3.6-0.4 5.7-0.8 9.1-0.8q0.1-4.5 0.1-9c-2.7 0-5.3 0.2-8.9 0.6-0.1 3-0.2 6.3-0.3 9.2zm9 8.8q5-0.1 10 0.5-0.1-4.8-0.1-9.5-4.9-0.6-9.8-0.6 0 4.8-0.1 9.6zm0.1-9.6q4.9 0 9.8 0.6-0.1-4.5-0.2-9-4.7-0.6-9.5-0.6 0 4.5-0.1 9zm9.9 10.1c3.6 0.4 6.9 1 9.7 1.6q-0.2-4.7-0.5-9.4c-2.6-0.7-5.8-1.3-9.3-1.7q0 4.7 0.1 9.5zm-0.1-9.5c3.5 0.4 6.7 1 9.3 1.7q-0.2-4.5-0.4-8.9c-2.6-0.6-5.6-1.3-9.1-1.8q0.1 4.5 0.2 9z"/>
							</g>
							<g id="&lt;Group&gt;">
								<path id="&lt;Mesh&gt;" class="s17" d="m585.5 389.2c4.2 0 7.6 0.1 11.8 0.1 0.4-16 0.9-32.5 1.2-48.5-3.8 0.5-7.8 1.2-10.6 1.9q-1.2 23.3-2.4 46.5zm11.8 0.1c3.4 0 7.5-0.1 10.9-0.1q0-24.5 0-49.1c-3.7 0-6.6 0.3-9.7 0.7-0.3 16-0.8 32.5-1.2 48.5zm10.9-0.1c3.4 0 8.5 0 11.9 0-0.3-16-1.2-32.4-1.6-48.4-3.1-0.4-6.6-0.7-10.3-0.7q0 24.6 0 49.1zm11.9 0c4.2 0 6.7 0 11 0q-1.3-23.2-2.5-46.5c-2.8-0.7-6.2-1.4-10.1-1.9 0.4 16 1.3 32.4 1.6 48.4z"/>
							</g>
						</g>
						<g id="&lt;Group&gt;">
							<g id="&lt;Clip Group&gt;" clip-path="url(#cp3)">
							</g>
						</g>
						<g id="&lt;Clip Group&gt;" clip-path="url(#cp4)">
							<g id="&lt;Group&gt;">
								<path id="&lt;Mesh&gt;" class="s18" d="m583 519.4c2.9 1.5 5.8 2.6 8.5 3.4-0.1-3.7-2.9-7.1-4.3-10.2q-4.4-1-8.9-2.7c2 3 4.7 5.9 4.7 9.5zm-4.7-9.5q4.5 1.7 8.9 2.7c-0.8-1.8-1.9-3.8-1.8-5.7q-4.6-0.9-9.1-2.4c0 1.9 0.9 3.7 2 5.4zm-2-5.4q4.5 1.5 9.1 2.4 0-0.9 0-1.8-4.5-0.9-9-2.3 0 0.9-0.1 1.7zm0.1-1.7q4.5 1.4 9 2.3c0.4-19.5 1.4-39.9 2.3-59.7-2.8-0.2-5.4-0.4-8.1-0.6-1.3 19.1-2.6 38.8-3.2 58zm3.2-58c2.7 0.2 5.3 0.4 8.1 0.6 1-20.2 1.9-39.8 2.1-57.3q-3.7 0.4-7.4 1.1c-0.2 17.2-1.5 36.1-2.8 55.6zm2.8-55.6q3.7-0.7 7.4-1.1 0-2.7 0-5.4-3.7 0.5-7.4 1.2 0 2.6 0 5.3zm9.1 133.6c2.7 0.8 5.3 1.4 7.6 1.8 0-3.7-2.3-7.3-3.1-10.5q-4.3-0.5-8.8-1.5c1.4 3.1 4.2 6.5 4.3 10.2zm-4.3-10.2q4.5 1 8.8 1.5c-0.4-1.9-1.3-3.9-1.3-5.9q-4.7-0.4-9.3-1.3c-0.1 1.9 1 3.9 1.8 5.7zm-1.8-5.7q4.6 0.9 9.3 1.3 0-0.9 0-1.8-4.7-0.4-9.3-1.3 0 0.9 0 1.8zm0-1.8q4.6 0.9 9.3 1.3c0.2-19.8 0.7-40.5 1.3-60.7-2.8-0.1-5.5-0.2-8.3-0.3-0.9 19.8-1.9 40.2-2.3 59.7zm2.3-59.7c2.8 0.1 5.5 0.2 8.3 0.3 0.5-20.5 1.1-40.4 1.3-58.3q-3.8 0.2-7.5 0.7c-0.2 17.5-1.1 37.1-2.1 57.3zm2.1-57.3q3.7-0.5 7.5-0.7 0-2.8 0-5.5-3.7 0.3-7.5 0.8 0 2.7 0 5.4zm9.3 136.5c3.4 0.6 6.3 0.7 8.8 0.8 0-3.9 0-7.3-0.1-10.6-3.8 0-7.7-0.2-11.8-0.7 0.8 3.2 3.1 6.8 3.1 10.5zm-3.1-10.5c4.1 0.5 8 0.7 11.8 0.7 0-2 0-3.9 0-5.9-4.4-0.1-8.8-0.2-13.1-0.7 0 2 0.9 4 1.3 5.9zm-1.3-5.9c4.3 0.5 8.7 0.6 13.1 0.7q0-1 0-1.9c-4.4 0-8.8-0.1-13.1-0.6q0 0.9 0 1.8zm0-1.8c4.3 0.5 8.7 0.6 13.1 0.6-0.1-20.2-0.1-40.9-0.1-61.2-4 0-7.8 0-11.7-0.1-0.6 20.2-1.1 40.9-1.3 60.7zm1.3-60.7c3.9 0.1 7.7 0.1 11.7 0.1-0.1-20.5 0-40.4 0.1-58.7q-5.3 0-10.5 0.3c-0.2 17.9-0.8 37.8-1.3 58.3zm1.3-58.3q5.2-0.3 10.5-0.3 0-2.8 0.1-5.6-5.3 0-10.6 0.4 0 2.7 0 5.5zm10.6 138q4.5 0 8.9-0.7c0-3.8 1-7.2 1.5-10.4q-5.2 0.5-10.5 0.5c0.1 3.3 0.1 6.7 0.1 10.6zm-0.1-10.6q5.3 0 10.5-0.5c0.3-1.9 0.7-3.9 0.7-5.9q-5.6 0.5-11.2 0.5c0 2 0 3.9 0 5.9zm0-5.9q5.6 0 11.2-0.5 0-0.9 0-1.8-5.6 0.5-11.2 0.4 0 0.9 0 1.9zm0-1.9q5.6 0.1 11.2-0.4c-0.3-19.9-0.6-40.6-0.9-60.8q-5.1 0.1-10.4 0c0 20.3 0 41 0.1 61.2zm-0.1-61.2q5.3 0.1 10.4 0c-0.3-20.5-0.5-40.5-0.4-58.4q-4.7-0.3-9.9-0.3c-0.1 18.3-0.2 38.2-0.1 58.7zm0.1-58.7q5.2 0 9.9 0.3 0-2.8 0-5.6-4.7-0.3-9.8-0.3-0.1 2.8-0.1 5.6zm9 137.6q4.2-0.7 8.3-2c0-3.7 1.9-6.9 3.2-10q-5 1.1-10 1.6c-0.5 3.2-1.5 6.6-1.5 10.4zm1.5-10.4q5-0.5 10-1.6c0.7-1.8 1.3-3.7 1.3-5.7q-5.3 1-10.6 1.4c0 2-0.4 4-0.7 5.9zm0.7-5.9q5.3-0.4 10.6-1.4 0-0.8 0-1.7-5.3 0.9-10.6 1.3 0 0.9 0 1.8zm0-1.8q5.3-0.4 10.6-1.3c-0.4-19.5-1.2-40-1.9-59.8-3.1 0.1-6.3 0.2-9.6 0.3 0.3 20.2 0.6 40.9 0.9 60.8zm-0.9-60.8c3.3-0.1 6.5-0.2 9.6-0.3-0.7-20.2-1.4-39.8-1.5-57.4q-4-0.5-8.5-0.7c-0.1 17.9 0.1 37.9 0.4 58.4zm-0.4-58.4q4.5 0.2 8.5 0.7 0-2.7 0-5.4-4-0.6-8.5-0.9 0 2.8 0 5.6zm7.4 135.3q4.1-1.3 8.1-3.3c0-3.6 2.7-6.5 4.6-9.5q-4.7 1.7-9.5 2.8c-1.3 3.1-3.2 6.3-3.2 10zm3.2-10q4.8-1.1 9.5-2.8c1.2-1.7 2.1-3.5 2-5.4q-5 1.6-10.2 2.5c0 2-0.6 3.9-1.3 5.7zm1.3-5.7q5.2-0.9 10.2-2.5 0-0.8 0-1.7-5 1.6-10.2 2.5 0 0.9 0 1.7zm0-1.7q5.2-0.9 10.2-2.5c-0.6-19.2-2-38.9-3.2-58q-4.3 0.4-8.9 0.7c0.7 19.8 1.5 40.3 1.9 59.8zm-1.9-59.8q4.6-0.3 8.9-0.7c-1.4-19.5-2.6-38.4-2.8-55.6q-3.5-0.7-7.6-1.1c0.1 17.6 0.8 37.2 1.5 57.4zm-1.5-57.4q4.1 0.4 7.6 1.1 0-2.7 0-5.3-3.6-0.7-7.6-1.2 0 2.7 0 5.4z"/>
								<g id="&lt;Group&gt;">
									<path id="&lt;Compound Path&gt;" fill-rule="evenodd" class="s19" d="m660.3 393.8v3.9c-11.3-4.5-29.3-7.7-51.1-7.6-21.9 0.1-39.8 3.6-51.1 8.2v-3.9c13.1-5 32.2-7.8 51.1-7.9 18.8-0.1 38 2.5 51.1 7.3zm0.1 9.6v3.8c-11.3-4.5-29.3-7.7-51.2-7.6-21.8 0.2-39.7 3.6-51 8.2v-3.9c13-4.9 32.2-7.7 51-7.8 18.8-0.2 38 2.4 51.2 7.3zm0 9.5v3.8c-11.3-4.4-29.3-7.7-51.1-7.5-21.8 0.1-39.8 3.5-51.1 8.1v-3.8c13.1-5 32.3-7.8 51.1-7.9 18.8-0.1 38 2.5 51.1 7.3z"/>
									<path id="&lt;Compound Path&gt;" fill-rule="evenodd" class="s20" d="m660.3 394.9v3.8c-11.3-4.4-29.3-7.7-51.1-7.6-21.8 0.2-39.8 3.6-51.1 8.2v-3.8c13.1-5 32.3-7.8 51.1-7.9 18.8-0.1 38 2.5 51.1 7.3zm0.1 9.5v3.9c-11.3-4.5-29.3-7.8-51.1-7.6-21.9 0.1-39.8 3.5-51.1 8.1v-3.8c13-5 32.2-7.8 51-7.9 18.9-0.1 38 2.5 51.2 7.3zm0 9.5v3.9c-11.3-4.5-29.2-7.7-51.1-7.6-21.8 0.1-39.8 3.6-51 8.2l-0.1-3.9c13.1-5 32.3-7.8 51.1-7.9 18.8-0.1 38 2.5 51.1 7.3z"/>
								</g>
								<g id="&lt;Group&gt;">
									<path id="&lt;Compound Path&gt;" fill-rule="evenodd" class="s21" d="m609.2 499.6c-18.9-0.1-38-2.9-51.1-7.9v-3.8c11.3 4.6 29.2 8 51.1 8.1 21.8 0.2 39.8-3.1 51.1-7.5v3.8c-13.1 4.8-32.3 7.4-51.1 7.3zm0-9.5c-18.8-0.1-38-2.9-51-7.9v-3.9c11.3 4.7 29.2 8.1 51 8.2 21.9 0.1 39.9-3.1 51.2-7.6v3.9c-13.2 4.8-32.4 7.4-51.2 7.3zm0.1-9.5c-18.8-0.1-38-3-51.1-7.9v-3.9c11.3 4.6 29.3 8.1 51.1 8.2 21.8 0.1 39.8-3.1 51.1-7.6v3.9c-13.1 4.8-32.3 7.4-51.1 7.3z"/>
									<path id="&lt;Compound Path&gt;" fill-rule="evenodd" class="s22" d="m609.2 498.6c-18.8-0.1-38-2.9-51.1-7.9v-3.9c11.3 4.6 29.3 8.1 51.1 8.2 21.8 0.1 39.8-3.1 51.1-7.6v3.9c-13.1 4.8-32.3 7.4-51.1 7.3zm0-9.6c-18.8-0.1-38-2.9-51-7.8v-3.9c11.3 4.6 29.2 8.1 51.1 8.2 21.8 0.1 39.8-3.1 51.1-7.6v3.9c-13.2 4.8-32.3 7.4-51.2 7.2zm0.1-9.5c-18.8-0.1-38-2.9-51.1-7.9l0.1-3.8c11.2 4.6 29.2 8 51 8.2 21.9 0.1 39.8-3.2 51.1-7.6v3.8c-13.1 4.8-32.3 7.4-51.1 7.3z"/>
								</g>
								<g id="&lt;Group&gt;">
									<path id="&lt;Path&gt;" class="s23" d="m606.9 442.2c1.5-47.6-3.7-86.4-11.8-86.7-8-0.2-15.8 38.2-17.3 85.8-1.5 47.6 3.8 86.4 11.8 86.6 8 0.3 15.8-38.1 17.3-85.7z"/>
									<path id="&lt;Path&gt;" class="s24" d="m604.2 442.1c1.5-45-2.7-81.6-9.2-81.8-6.6-0.2-13.1 36.1-14.5 81-1.4 45 2.7 81.6 9.2 81.9 6.6 0.2 13.1-36.1 14.5-81.1z"/>
								</g>
								<g id="&lt;Group&gt;">
									<path id="&lt;Path&gt;" class="s25" d="m607.8 522.5c-9.1-23-22.6-39.2-30.1-36.2-7.4 2.9-6.1 24 3.1 47 9.1 23 22.6 39.2 30 36.3 7.5-3 6.1-24-3-47.1z"/>
									<path id="&lt;Path&gt;" class="s26" d="m605.3 523.5c-8.6-21.7-20.6-37.4-26.7-34.9-6 2.4-4 22 4.7 43.7 8.6 21.7 20.5 37.4 26.6 35 6.1-2.4 4-22-4.6-43.8z"/>
								</g>
							</g>
						</g>
					</g>
					<g id="&lt;Group&gt;">
						<g id="&lt;Group&gt;">
							<g id="&lt;Clip Group&gt;" clip-path="url(#cp5)">
							</g>
						</g>
						<path id="&lt;Mesh&gt;" class="s27" d="m649.9 652.8c-0.1 0.9 0.1 1.8 0.4 2.5 1.6-9.9 3.2-19.1 4.7-27.7-1.3-0.7-2.3-1.4-2.7-2.1-0.9 8.5-1.7 17.5-2.4 27.3zm2.4-27.3c0.4 0.7 1.4 1.4 2.7 2.1 2.9-16.8 6.3-32.4 10.3-48.4q-2.4-0.6-4.9-1.3c-4 16.1-6.3 30.9-8.1 47.6zm8.1-47.6q2.5 0.7 4.9 1.3 6.4-25.2 12.7-50.4-2.4-0.6-4.9-1.2-6.3 25.2-12.7 50.3zm12.7-50.3q2.5 0.6 4.9 1.2 2.9-11.4 5.8-22.7-2.5-0.6-4.9-1.3-2.9 11.4-5.8 22.8zm-22.8 127.7c0.4 0.8 1 1.4 1.4 1.5 2.5-9.9 4.8-19.1 7-27.8-0.8-0.2-2.4-0.8-3.7-1.4-1.5 8.6-3.1 17.8-4.7 27.7zm4.7-27.7c1.3 0.6 2.9 1.2 3.7 1.4 4.3-17 8.1-32.4 12.2-48.4q-2.8-0.7-5.6-1.4c-4 16-7.4 31.6-10.3 48.4zm10.3-48.4q2.8 0.7 5.6 1.4 6.3-25.2 12.7-50.4-2.8-0.7-5.6-1.4-6.3 25.2-12.7 50.4zm12.7-50.4q2.8 0.7 5.6 1.4 2.8-11.4 5.7-22.7-2.8-0.7-5.5-1.4-2.9 11.3-5.8 22.7zm-26.3 128c0.5 0.1 1.2-0.1 1.9-0.5 3.2-9.4 6.1-18.4 8.8-26.7-1.4-0.1-2.9-0.4-3.7-0.6-2.2 8.7-4.5 17.9-7 27.8zm7-27.8c0.8 0.2 2.3 0.5 3.7 0.6 5.3-16.2 9.7-31.6 13.8-47.7q-2.7-0.7-5.3-1.3c-4.1 16-7.9 31.4-12.2 48.4zm12.2-48.4q2.6 0.6 5.3 1.3 6.3-25.2 12.7-50.4-2.7-0.6-5.3-1.3-6.4 25.2-12.7 50.4zm12.7-50.4q2.6 0.7 5.3 1.3 2.9-11.3 5.7-22.7-2.6-0.7-5.3-1.3-2.9 11.3-5.7 22.7zm-30 126.1c0.7-0.5 1.3-1.2 1.7-2.1 4-8.9 7.5-17.2 10.8-25.1-0.8 0.6-2.2 0.6-3.7 0.5-2.7 8.3-5.6 17.3-8.8 26.7zm8.8-26.7c1.5 0.1 2.9 0.1 3.7-0.5 6.3-15.5 11.4-29.8 15.4-45.9q-2.7-0.6-5.3-1.3c-4.1 16.1-8.5 31.5-13.8 47.7zm13.8-47.7q2.6 0.7 5.3 1.3 6.4-25.1 12.7-50.3-2.7-0.7-5.3-1.4-6.4 25.2-12.7 50.4zm12.7-50.4q2.6 0.7 5.3 1.4 2.9-11.4 5.7-22.7-2.6-0.7-5.3-1.4-2.8 11.4-5.7 22.7z"/>
						<g id="&lt;Group&gt;">
							<path id="&lt;Mesh&gt;" class="s28" d="m740.2 171.2c-9.5-19.3-18.7-47.2-12.7-74.8 2.1-9.6 5.2-18.1 8.8-25.4 6.8-0.7 12.4 2.1 17.2 6-14.2 33.3-14.3 69.9-6.9 106.3-2-3.5-4.2-7.6-6.4-12.1zm6.4 12.1c-7.4-36.4-7.3-73 6.9-106.3 4.3 3.6 8.1 8 11.6 11.5-12.5 32.8-14.5 67.4-13.6 102.7-1.4-2.1-3-4.8-4.9-7.9zm4.9 7.9c-0.9-35.3 1.1-69.9 13.6-102.7 3.5 3.4 6.9 6.8 10.1 9.7-11.1 31.6-16.4 64.3-20.8 97.2-0.7-1-1.7-2.4-2.9-4.2zm2.9 4.2c4.4-32.9 9.7-65.6 20.8-97.2 3.3 3 6.5 5.6 9.4 7.5q-14.6 45.6-29.1 91.2c0 0-0.4-0.5-1.1-1.5zm-18.1-124.4c7.1-14.5 16.2-24.6 23.9-31.3 3.5-2.4 8.4-5.3 12.1-1.5-6.1 10.1-12.9 23.1-18.8 38.8-4.8-3.9-10.4-6.7-17.2-6zm17.2 6c5.9-15.7 12.7-28.7 18.8-38.8 3 3.2 6.1 7.4 9.1 10.5-5.3 11.4-10.9 25-16.3 39.8-3.5-3.5-7.3-7.9-11.6-11.5zm11.6 11.5c5.4-14.8 11-28.4 16.3-39.8 2.6 2.7 5.3 6.3 7.9 9-4.7 12.5-9.3 26.6-14.1 40.5-3.2-2.9-6.6-6.3-10.1-9.7zm10.1 9.7c4.8-13.9 9.4-28 14.1-40.5 2.5 2.7 5.3 6.2 7.8 8.8q-6.3 19.6-12.5 39.2c-2.9-1.9-6.1-4.5-9.4-7.5zm-15-58.5c2-1.8 4-3.3 5.7-4.6 5.6-4.2 9.5-6 9.5-6q0.8 0.8 1.5 1.6-2.2 3.5-4.6 7.5c-3.7-3.8-8.6-0.9-12.1 1.5zm12.1-1.5q2.4-4 4.6-7.5 4.3 4.7 8.7 9.3-2.1 4.1-4.2 8.7c-3-3.1-6.1-7.3-9.1-10.5zm9.1 10.5q2.1-4.6 4.2-8.7 3.7 4 7.4 8-1.9 4.7-3.7 9.7c-2.6-2.7-5.3-6.3-7.9-9zm7.9 9q1.8-5 3.7-9.7 3.7 4 7.4 8-1.6 5.3-3.3 10.5c-2.5-2.6-5.3-6.1-7.8-8.8z"/>
							<path id="&lt;Mesh&gt;" class="s29" d="m806 187.8c17.4-12.6 38.7-32.7 46.5-59.9 2.8-9.5 4.1-18.3 4.4-26.5-5.7-3.9-11.9-4-18-2.8-3.3 36-20.6 68.3-44.4 96.8 3.5-2.1 7.4-4.7 11.5-7.6zm-11.5 7.6c23.8-28.5 41.1-60.8 44.4-96.8-5.5 1-10.9 3.1-15.7 4.5-4.6 34.9-19.2 66.3-36.7 96.9 2.2-1.2 4.9-2.7 8-4.6zm-8 4.6c17.5-30.6 32.1-62 36.7-96.9-4.7 1.4-9.2 2.7-13.5 3.8-5.2 33.1-16 64.5-27.8 95.4 1.1-0.5 2.7-1.3 4.6-2.3zm-4.6 2.3c11.8-30.9 22.6-62.3 27.8-95.4-4.3 1.1-8.3 1.8-11.8 2.1q-8.8 47.1-17.6 94.1c0 0 0.6-0.2 1.6-0.8zm75-100.9c0.6-16.1-2.6-29.4-6.2-38.9-2-3.7-4.9-8.6-10-7 0.6 11.7 0.4 26.3-1.8 43.1 6.1-1.2 12.3-1.1 18 2.8zm-18-2.8c2.2-16.8 2.4-31.4 1.8-43.1-4.1 1.3-8.9 3.5-13 4.9-0.7 12.5-2.2 27.2-4.5 42.7 4.8-1.4 10.2-3.5 15.7-4.5zm-15.7 4.5c2.3-15.5 3.8-30.2 4.5-42.7-3.5 1.2-7.6 3-11.2 4.2-1.8 13.2-4.4 27.8-6.8 42.3 4.3-1.1 8.8-2.4 13.5-3.8zm-13.5 3.8c2.4-14.5 5-29.1 6.8-42.3-3.5 1.1-7.6 2.9-11 4q-3.8 20.2-7.6 40.4c3.5-0.3 7.5-1 11.8-2.1zm41-44.4c-1-2.5-1.9-4.8-2.9-6.8-2.9-6.3-5.5-9.7-5.5-9.7q-1.1 0.3-2.1 0.7 0.3 4.1 0.5 8.8c5.1-1.6 8 3.3 10 7zm-10-7q-0.2-4.7-0.5-8.8-6 2-12 4.1-0.2 4.5-0.5 9.6c4.1-1.4 8.9-3.6 13-4.9zm-13 4.9q0.3-5.1 0.5-9.6-5.2 1.7-10.3 3.5-0.6 5-1.4 10.3c3.6-1.2 7.7-3 11.2-4.2zm-11.2 4.2q0.8-5.3 1.4-10.3-5.2 1.7-10.4 3.5-1 5.4-2 10.8c3.4-1.1 7.5-2.9 11-4z"/>
						</g>
						<g id="&lt;Group&gt;">
							<path id="&lt;Mesh&gt;" class="s30" d="m700.4 374.5q5.5 1.3 10.9 2.7 1.8-6.3 3.5-12.5c-3.5-0.8-7-1.7-10.6-2.6q-1.9 6.2-3.8 12.4zm3.8-12.4c3.6 0.9 7.1 1.8 10.6 2.6 5.6-20.1 11.3-40.4 16.9-60.5-2.9-0.5-5.8-0.9-9.1-1.6q-9.2 29.8-18.4 59.5zm18.4-59.5c3.3 0.7 6.2 1.1 9.1 1.6 5.9-21.1 11.7-42.3 17.6-63.4-2.4-0.1-4.7-0.1-7.5-0.4q-9.6 31.1-19.2 62.2zm19.2-62.2c2.8 0.3 5.1 0.3 7.5 0.4 8-28.6 15.8-57.7 23.8-86.4-1.8 0.3-3.5 0.9-5.2 1.3q-13.1 42.4-26.1 84.7zm26.1-84.7c1.7-0.4 3.4-1 5.2-1.3 7.5-26.9 14.9-54.7 22.4-81.7-1.3 0.6-2.4 1.6-3 3.2q-12.3 39.9-24.6 79.8zm24.6-79.8c0.6-1.6 1.7-2.6 3-3.2 1.9-6.7 3.7-13.4 5.6-20.2-1.2 0.8-2.1 2-2.5 3.5q-3 9.9-6.1 19.9zm-81.2 301.3q5.6 1.4 11.2 2.8 1.6-6.3 3.2-12.7c-3.7-0.9-7.3-1.8-10.9-2.6q-1.7 6.2-3.5 12.5zm3.5-12.5c3.6 0.8 7.2 1.7 10.9 2.6 5.1-20.4 10.3-40.9 15.4-61.3-3.4-0.9-6.4-1.4-9.4-1.8-5.6 20.1-11.3 40.4-16.9 60.5zm16.9-60.5c3 0.4 6 0.9 9.4 1.8 5.4-21.4 10.8-42.8 16.1-64.2-3-0.7-5.5-0.9-7.9-1-5.9 21.1-11.7 42.3-17.6 63.4zm17.6-63.4c2.4 0.1 4.9 0.3 7.9 1 7.3-29 14.8-58.1 22-87.2-2.3-0.5-4.3-0.5-6.1-0.2-8 28.7-15.8 57.8-23.8 86.4zm23.8-86.4c1.8-0.3 3.8-0.3 6.1 0.2 6.9-27.4 14-54.7 20.8-82.1-1.5-0.4-3.1-0.3-4.5 0.2-7.5 27-14.9 54.8-22.4 81.7zm22.4-81.7c1.4-0.5 3-0.6 4.5-0.2q2.6-10.3 5.2-20.7c-1.4-0.3-2.9 0-4.1 0.7-1.9 6.8-3.7 13.5-5.6 20.2zm-73 307.3q5.6 1.4 11.2 2.9 1.5-6.4 2.9-12.7-5.5-1.5-10.9-2.9-1.6 6.4-3.2 12.7zm3.2-12.7q5.4 1.4 10.9 2.9c4.5-20.4 9.2-41 13.7-61.4-3-1-6.1-2.1-9.2-2.8-5.1 20.4-10.3 40.9-15.4 61.3zm15.4-61.3c3.1 0.7 6.2 1.8 9.2 2.8 4.8-21.3 9.7-42.8 14.4-64.1-2.4-1.2-4.8-2.2-7.5-2.9-5.3 21.4-10.7 42.8-16.1 64.2zm16.1-64.2c2.7 0.7 5.1 1.7 7.5 2.9 6.5-29.1 13.4-58.5 19.9-87.5-1.6-1.1-3.3-2.1-5.4-2.6-7.2 29.1-14.7 58.2-22 87.2zm22-87.2c2.1 0.5 3.8 1.5 5.4 2.6 6.1-27.3 13.2-55 19.3-82.3-0.9-1.2-2.3-2-3.9-2.4-6.8 27.4-13.9 54.7-20.8 82.1zm20.8-82.1c1.6 0.4 3 1.2 3.9 2.4 1.5-6.9 3.2-13.6 4.7-20.5-0.7-1.2-1.9-2.2-3.4-2.6q-2.6 10.4-5.2 20.7zm-66.3 310.4q5.5 1.3 10.9 2.7 1.3-6.3 2.5-12.7-5.3-1.3-10.5-2.7-1.4 6.3-2.9 12.7zm2.9-12.7q5.2 1.4 10.5 2.7 6-30.5 12.1-61.1c-3-0.9-5.9-1.9-8.9-3-4.5 20.4-9.2 41-13.7 61.4zm13.7-61.4c3 1.1 5.9 2.1 8.9 3q6.3-31.9 12.6-63.9c-2.5-0.9-4.8-2.1-7.1-3.2-4.7 21.3-9.6 42.8-14.4 64.1zm14.4-64.1c2.3 1.1 4.6 2.3 7.1 3.2q8.5-43.4 17.1-86.9c-1.5-1.3-2.8-2.7-4.3-3.8-6.5 29-13.4 58.4-19.9 87.5zm19.9-87.5c1.5 1.1 2.8 2.5 4.3 3.8q8.1-40.9 16.2-81.9c0.2-1.7-0.3-3.1-1.2-4.2-6.1 27.3-13.2 55-19.3 82.3zm19.3-82.3c0.9 1.1 1.4 2.5 1.2 4.2q2-10.3 4-20.5c0.4-1.4 0.2-2.9-0.5-4.2-1.5 6.9-3.2 13.6-4.7 20.5z"/>
							<g id="&lt;Group&gt;">
								<path id="&lt;Mesh&gt;" class="s31" d="m719.3 313.4c2.2 0.1 7.4 0.6 10.1 0.9 0.9-3 1.5-5.9 2.4-8.9-2.7-0.3-7-1-9.8-1q-1.4 4.5-2.7 9zm2.7-9c2.8 0 7.1 0.7 9.8 1 0.8-2.9 1.7-6 2.5-8.9-2.8-0.3-6.4-0.6-9.7-0.6q-1.3 4.2-2.6 8.5zm7.4 9.9c3.6 0.4 4.8 0.7 9 1.7q1.2-4.6 2.5-9.2c-3.4-0.9-5.5-1-9.1-1.4-0.9 3-1.5 5.9-2.4 8.9zm2.4-8.9c3.6 0.4 5.7 0.5 9.1 1.4q1.1-4.4 2.2-8.7c-2.6-0.7-5.2-1.2-8.8-1.6-0.8 2.9-1.7 6-2.5 8.9zm6.6 10.6q4.9 1.2 9.5 3 1.1-4.7 2.2-9.3-4.5-1.8-9.2-2.9-1.3 4.6-2.5 9.2zm2.5-9.2q4.7 1.1 9.2 2.9 1.1-4.4 2.1-8.7-4.5-1.8-9.1-2.9-1.1 4.3-2.2 8.7zm7 12.2c3.5 1.2 6.5 2.6 9.1 3.9q0.9-4.6 1.8-9.3c-2.4-1.2-5.3-2.6-8.7-3.9q-1.1 4.6-2.2 9.3zm2.2-9.3c3.4 1.3 6.3 2.7 8.7 3.9q0.9-4.3 1.7-8.6c-2.3-1.3-5.1-2.7-8.3-4q-1 4.3-2.1 8.7z"/>
							</g>
							<g id="&lt;Group&gt;">
								<path id="&lt;Mesh&gt;" class="s32" d="m700.4 374.5c4.1 1 7.4 1.9 11.5 3 4.2-15.5 8.8-31.4 13-46.8-3.8-0.5-7.9-0.7-10.8-0.7q-6.8 22.2-13.7 44.5zm11.5 3c3.3 0.8 7.2 1.7 10.5 2.5q6-23.8 12-47.6c-3.6-0.9-6.4-1.3-9.5-1.7-4.2 15.4-8.8 31.3-13 46.8zm10.5 2.5c3.3 0.8 8.3 2 11.6 2.9 3.6-15.6 6.7-31.7 10.3-47.3-2.9-1.2-6.2-2.3-9.9-3.2q-6 23.8-12 47.6zm11.6 2.9c4.1 1 6.5 1.7 10.6 2.7q4.5-22.8 9-45.7c-2.5-1.4-5.6-2.9-9.3-4.3-3.6 15.6-6.7 31.7-10.3 47.3z"/>
							</g>
						</g>
						<g id="&lt;Group&gt;">
							<g id="&lt;Clip Group&gt;" clip-path="url(#cp6)">
							</g>
						</g>
						<g id="&lt;Clip Group&gt;" clip-path="url(#cp7)">
							<g id="&lt;Group&gt;">
								<path id="&lt;Mesh&gt;" class="s33" d="m666.2 500.1c2.5 2.1 5 3.9 7.4 5.4 0.9-3.6-1.1-7.7-1.6-11q-4.1-2-8-4.7c1.2 3.3 3.1 6.8 2.2 10.3zm-2.2-10.3q3.9 2.7 8 4.7c-0.4-1.9-0.9-4.1-0.4-6q-4.2-2-8.2-4.4c-0.5 1.8-0.1 3.7 0.6 5.7zm-0.6-5.7q4 2.4 8.2 4.4 0.2-0.8 0.4-1.7-4.2-1.9-8.1-4.4-0.3 0.8-0.5 1.7zm0.5-1.7q3.9 2.5 8.1 4.4c5.2-18.8 11.1-38.3 16.9-57.3-2.7-0.9-5.2-1.7-7.7-2.6-6 18.3-12.1 37.1-17.3 55.5zm17.3-55.5c2.5 0.9 5 1.7 7.7 2.6 5.8-19.3 11.5-38.1 16-55.1q-3.7-0.5-7.5-0.7c-4.4 16.6-10.2 34.7-16.2 53.2zm16.2-53.2q3.8 0.2 7.5 0.7 0.6-2.6 1.3-5.2-3.7-0.4-7.4-0.6-0.7 2.5-1.4 5.1zm-23.8 131.8c2.4 1.4 4.8 2.6 7 3.6 0.9-3.6-0.5-7.6-0.5-10.9q-4.1-1.6-8.1-3.7c0.5 3.3 2.5 7.4 1.6 11zm-1.6-11q4 2.1 8.1 3.7c0.1-2-0.3-4.2 0.2-6.1q-4.5-1.6-8.7-3.6c-0.5 1.9 0 4.1 0.4 6zm-0.4-6q4.2 2 8.7 3.6 0.2-0.8 0.4-1.7-4.4-1.6-8.7-3.6-0.2 0.9-0.4 1.7zm0.4-1.7q4.3 2 8.7 3.6c5-19.2 10.6-39.1 16.1-58.6-2.7-0.7-5.3-1.5-7.9-2.3-5.8 19-11.7 38.5-16.9 57.3zm16.9-57.3c2.6 0.8 5.2 1.6 7.9 2.3 5.5-19.7 11-38.9 15.5-56.2q-3.7-0.7-7.4-1.2c-4.5 17-10.2 35.8-16 55.1zm16-55.1q3.7 0.5 7.4 1.2 0.7-2.7 1.4-5.3-3.7-0.7-7.5-1.1-0.7 2.6-1.3 5.2zm-24.3 134.7c3.1 1.3 5.9 2.2 8.3 2.9 0.9-3.7 1.7-7 2.5-10.3-3.7-0.9-7.5-2.1-11.3-3.5 0 3.3 1.4 7.3 0.5 10.9zm-0.5-10.9c3.8 1.4 7.6 2.6 11.3 3.5 0.5-1.9 1-3.8 1.4-5.8-4.2-1-8.4-2.3-12.5-3.8-0.5 1.9-0.1 4.1-0.2 6.1zm0.2-6.1c4.1 1.5 8.3 2.8 12.5 3.8q0.3-0.8 0.5-1.7c-4.3-1.1-8.5-2.3-12.6-3.8q-0.2 0.9-0.4 1.7zm0.4-1.7c4.1 1.5 8.3 2.7 12.6 3.8 4.8-19.6 9.9-39.8 14.8-59.4-3.9-1-7.5-1.9-11.3-3-5.5 19.5-11.1 39.4-16.1 58.6zm16.1-58.6c3.8 1.1 7.4 2 11.3 3 5-19.9 9.9-39.2 14.5-56.9q-5.1-1.3-10.3-2.3c-4.5 17.3-10 36.5-15.5 56.2zm15.5-56.2q5.2 1 10.3 2.3 0.7-2.8 1.4-5.5-5.1-1.2-10.3-2.1-0.7 2.6-1.4 5.3zm-23.4 136.4q4.3 1.1 8.8 1.5c0.9-3.7 2.7-6.7 4-9.7q-5.2-0.8-10.3-2.1c-0.8 3.3-1.6 6.6-2.5 10.3zm2.5-10.3q5.1 1.3 10.3 2.1c0.8-1.8 1.6-3.6 2.1-5.5q-5.6-1-11-2.4c-0.4 2-0.9 3.9-1.4 5.8zm1.4-5.8q5.4 1.4 11 2.4 0.2-0.9 0.4-1.8-5.5-1-10.9-2.3-0.2 0.9-0.5 1.7zm0.5-1.7q5.4 1.3 10.9 2.3c4.7-19.3 9.4-39.5 14.1-59.2q-5-1.2-10.2-2.5c-4.9 19.6-10 39.8-14.8 59.4zm14.8-59.4q5.2 1.3 10.2 2.5c4.7-19.9 9.4-39.3 13.8-56.8q-4.5-1.4-9.5-2.6c-4.6 17.7-9.5 37-14.5 56.9zm14.5-56.9q5 1.2 9.5 2.6 0.7-2.7 1.4-5.3-4.5-1.5-9.5-2.8-0.7 2.7-1.4 5.5zm-24.9 135.6q4.2 0.3 8.6 0.1c0.9-3.6 3.5-6.3 5.4-9q-5-0.1-10-0.8c-1.3 3-3.1 6-4 9.7zm4-9.7q5 0.7 10 0.8c1.2-1.5 2.3-3.2 2.7-5.1q-5.3-0.4-10.6-1.2c-0.5 1.9-1.3 3.7-2.1 5.5zm2.1-5.5q5.3 0.8 10.6 1.2 0.2-0.8 0.4-1.7-5.3-0.4-10.6-1.3-0.2 0.9-0.4 1.8zm0.4-1.8q5.3 0.9 10.6 1.3c4.4-19 8.6-39 12.8-58.5-3-0.6-6.1-1.3-9.3-2-4.7 19.7-9.4 39.9-14.1 59.2zm14.1-59.2c3.2 0.7 6.3 1.4 9.3 2 4.2-19.7 8.4-38.9 12.6-56q-3.8-1.4-8.1-2.8c-4.4 17.5-9.1 36.9-13.8 56.8zm13.8-56.8q4.3 1.4 8.1 2.8 0.7-2.6 1.3-5.2-3.8-1.5-8-2.9-0.7 2.6-1.4 5.3zm-25.8 133.1q4.2-0.3 8.6-1.2c0.9-3.5 4.2-5.7 6.8-8.1q-5 0.5-10 0.3c-1.9 2.7-4.5 5.4-5.4 9zm5.4-9q5 0.2 10-0.3c1.5-1.4 2.8-2.9 3.2-4.7q-5.2 0.3-10.5-0.1c-0.4 1.9-1.5 3.6-2.7 5.1zm2.7-5.1q5.3 0.4 10.5 0.1 0.2-0.9 0.4-1.7-5.2 0.3-10.5-0.1-0.2 0.9-0.4 1.7zm0.4-1.7q5.3 0.4 10.5 0.1c4.2-18.7 7.6-38.2 11.1-57.1q-4.3-0.6-8.8-1.5c-4.2 19.5-8.4 39.5-12.8 58.5zm12.8-58.5q4.5 0.9 8.8 1.5c3.5-19.2 6.9-37.8 10.9-54.5q-3.3-1.5-7.1-3c-4.2 17.1-8.4 36.3-12.6 56zm12.6-56q3.8 1.5 7.1 3 0.6-2.6 1.2-5.2-3.2-1.5-7-3-0.6 2.6-1.3 5.2z"/>
								<g id="&lt;Group&gt;">
									<path id="&lt;Compound Path&gt;" fill-rule="evenodd" class="s34" d="m771.9 397.2l-1 3.8c-9.8-7.1-26.5-14.7-47.7-19.9-21.2-5.2-39.5-6.2-51.5-4.5l0.9-3.8c13.9-1.6 33.2 0.4 51.5 4.9 18.2 4.5 36.2 11.7 47.8 19.5zm-2.3 9.3l-0.9 3.7c-9.9-7.1-26.6-14.6-47.8-19.8-21.2-5.2-39.4-6.3-51.5-4.6l0.9-3.7c13.9-1.7 33.2 0.3 51.5 4.8 18.3 4.5 36.2 11.7 47.8 19.6zm-2.3 9.2l-0.9 3.8c-9.9-7.1-26.5-14.7-47.8-19.9-21.2-5.2-39.4-6.2-51.5-4.5l1-3.8c13.9-1.6 33.1 0.4 51.4 4.9 18.3 4.5 36.3 11.7 47.8 19.5z"/>
									<path id="&lt;Compound Path&gt;" fill-rule="evenodd" class="s35" d="m771.6 398.2l-0.9 3.8c-9.9-7.1-26.5-14.6-47.7-19.9-21.3-5.2-39.5-6.2-51.6-4.5l1-3.8c13.9-1.6 33.1 0.4 51.4 4.9 18.3 4.5 36.3 11.7 47.8 19.5zm-2.3 9.3l-0.9 3.7c-9.9-7.1-26.5-14.6-47.7-19.8-21.2-5.2-39.5-6.3-51.5-4.6l0.9-3.7c13.9-1.6 33.1 0.3 51.4 4.8 18.3 4.5 36.3 11.7 47.8 19.6zm-2.2 9.2l-1 3.8c-9.8-7.1-26.5-14.6-47.7-19.9-21.2-5.2-39.5-6.2-51.5-4.5l0.9-3.8c13.9-1.6 33.2 0.4 51.5 4.9 18.2 4.5 36.2 11.7 47.8 19.5z"/>
								</g>
								<g id="&lt;Group&gt;">
									<path id="&lt;Compound Path&gt;" fill-rule="evenodd" class="s36" d="m696.4 487.3c-18.2-4.7-36.1-12.1-47.6-20.1l1-3.7c9.8 7.2 26.4 14.9 47.5 20.4 21.2 5.4 39.4 6.7 51.5 5.1l-1 3.7c-13.9 1.5-33.2-0.7-51.4-5.4zm2.4-9.2c-18.2-4.7-36.1-12.1-47.6-20.1l1-3.8c9.8 7.2 26.3 15 47.5 20.4 21.1 5.5 39.4 6.7 51.4 5.2l-0.9 3.7c-13.9 1.5-33.2-0.7-51.4-5.4zm2.4-9.2c-18.3-4.7-36.1-12.1-47.6-20.2l1-3.7c9.8 7.2 26.3 14.9 47.5 20.4 21.1 5.5 39.3 6.7 51.4 5.1l-1 3.8c-13.9 1.4-33.1-0.7-51.3-5.4z"/>
									<path id="&lt;Compound Path&gt;" fill-rule="evenodd" class="s37" d="m696.7 486.3c-18.3-4.7-36.1-12.1-47.6-20.1l1-3.8c9.8 7.3 26.3 15 47.5 20.4 21.1 5.5 39.3 6.8 51.4 5.2l-1 3.7c-13.9 1.5-33.1-0.7-51.3-5.4zm2.4-9.2c-18.3-4.7-36.2-12.1-47.6-20.1l0.9-3.8c9.8 7.2 26.4 15 47.5 20.4 21.2 5.5 39.4 6.7 51.5 5.2l-1 3.7c-13.9 1.5-33.1-0.7-51.3-5.4zm2.3-9.2c-18.2-4.7-36.1-12.2-47.5-20.2l0.9-3.7c9.8 7.2 26.4 14.9 47.5 20.4 21.2 5.5 39.4 6.7 51.5 5.1l-1 3.8c-13.9 1.4-33.1-0.7-51.4-5.4z"/>
								</g>
								<g id="&lt;Group&gt;">
									<path id="&lt;Path&gt;" class="s38" d="m708.2 431.1c13.2-45.8 17.5-84.7 9.8-86.9-7.7-2.2-24.6 33.1-37.7 78.9-13.1 45.7-17.5 84.7-9.8 86.9 7.7 2.2 24.6-33.1 37.7-78.9z"/>
									<path id="&lt;Path&gt;" class="s39" d="m705.7 430.3c12.3-43.2 17.3-79.7 11-81.5-6.3-1.8-21.5 31.8-33.8 75-12.4 43.3-17.4 79.8-11.1 81.6 6.3 1.8 21.5-31.8 33.9-75.1z"/>
								</g>
								<g id="&lt;Group&gt;">
									<path id="&lt;Path&gt;" class="s40" d="m689.5 509.2c-3.3-24.5-12.3-43.6-20.3-42.5-8 1-11.8 21.8-8.6 46.3 3.3 24.6 12.4 43.6 20.3 42.6 8-1.1 11.8-21.8 8.6-46.4z"/>
									<path id="&lt;Path&gt;" class="s41" d="m686.8 509.6c-3-23.2-10.8-41.3-17.3-40.5-6.5 0.9-9.3 20.4-6.2 43.6 3.1 23.2 10.8 41.3 17.3 40.4 6.5-0.9 9.3-20.4 6.2-43.5z"/>
								</g>
							</g>
						</g>
					</g>
					<g id="&lt;Group&gt;">
						<g id="&lt;Group&gt;">
							<g id="&lt;Clip Group&gt;" clip-path="url(#cp8)">
							</g>
						</g>
						<path id="&lt;Mesh&gt;" class="s42" d="m577.1 693.5c0.4 0.8 1 1.5 1.6 1.9-3.5-9.3-6.7-18.2-9.6-26.4-1.4 0.1-2.7 0-3.4-0.5 3.4 7.9 7.2 16 11.4 25zm-11.4-25c0.7 0.5 2 0.6 3.4 0.5-5.8-16-10.6-31.2-15-47.2q-2.4 0.7-4.9 1.4c4.5 16 9.8 30 16.5 45.3zm-16.5-45.3q2.5-0.7 4.9-1.4-7-25-13.9-50-2.4 0.7-4.9 1.4 7 25 13.9 50zm-13.9-50q2.5-0.7 4.9-1.4-3.2-11.3-6.3-22.6-2.4 0.7-4.9 1.4 3.2 11.3 6.3 22.6zm43.4 122.2c0.8 0.5 1.6 0.7 2 0.6-2.7-9.8-5.2-18.9-7.7-27.6-0.8 0.2-2.4 0.5-3.9 0.6 2.9 8.2 6.1 17.1 9.6 26.4zm-9.6-26.4c1.5-0.1 3.1-0.4 3.9-0.6-4.7-16.9-9-32.1-13.4-48.1q-2.7 0.8-5.5 1.5c4.4 16 9.2 31.2 15 47.2zm-15-47.2q2.8-0.7 5.5-1.5-7-25-13.9-50-2.8 0.7-5.5 1.5 6.9 25 13.9 50zm-13.9-50q2.7-0.8 5.5-1.5-3.2-11.3-6.3-22.6-2.7 0.8-5.5 1.5 3.1 11.3 6.3 22.6zm40.5 124.2c0.5-0.1 1-0.6 1.4-1.4-1.9-9.7-3.8-18.9-5.5-27.5-1.3 0.6-2.8 1.1-3.6 1.3 2.5 8.7 5 17.8 7.7 27.6zm-7.7-27.6c0.8-0.2 2.3-0.7 3.6-1.3-3.5-16.7-7.3-32.3-11.7-48.2q-2.7 0.7-5.3 1.4c4.4 16 8.7 31.2 13.4 48.1zm-13.4-48.1q2.6-0.7 5.3-1.4-7-25.1-13.9-50.1-2.7 0.7-5.3 1.5 6.9 25 13.9 50zm-13.9-50q2.6-0.8 5.3-1.5-3.2-11.3-6.3-22.6-2.7 0.8-5.3 1.5 3.1 11.3 6.3 22.6zm36.4 124.3c0.3-0.7 0.6-1.6 0.5-2.6-1-9.7-2-18.6-3.1-27.1-0.4 0.8-1.6 1.6-2.9 2.2 1.7 8.6 3.6 17.8 5.5 27.5zm-5.5-27.5c1.3-0.6 2.5-1.4 2.9-2.2-2.2-16.6-4.9-31.6-9.3-47.5q-2.7 0.7-5.3 1.5c4.4 15.9 8.2 31.5 11.7 48.2zm-11.7-48.2q2.6-0.8 5.3-1.5-7-25-14-50.1-2.6 0.8-5.2 1.5 6.9 25 13.9 50.1zm-13.9-50.1q2.6-0.7 5.2-1.5-3.1-11.3-6.2-22.5-2.7 0.7-5.3 1.4 3.1 11.3 6.3 22.6z"/>
						<g id="&lt;Group&gt;">
							<path id="&lt;Mesh&gt;" class="s43" d="m417.3 234.8c-17.8-12.1-39.6-31.7-48-58.7-3-9.4-4.5-18.2-5-26.4 5.6-4 11.8-4.3 17.9-3.3 4.2 36 22.2 67.9 46.7 95.7-3.5-2-7.5-4.4-11.6-7.3zm11.6 7.3c-24.5-27.8-42.5-59.7-46.7-95.7 5.5 1 11 3 15.8 4.2 5.4 34.8 20.8 65.8 39.1 96-2.3-1.2-5.1-2.6-8.2-4.5zm8.2 4.5c-18.3-30.2-33.7-61.2-39.1-96 4.7 1.3 9.3 2.5 13.6 3.5 6 32.9 17.6 64 30 94.7-1-0.5-2.6-1.2-4.5-2.2zm4.5 2.2c-12.4-30.7-24-61.8-30-94.7 4.3 0.9 8.3 1.6 11.8 1.8q10 46.8 19.9 93.7c0 0-0.6-0.3-1.7-0.8zm-77.3-99.1c-1-16.1 1.9-29.4 5.2-39 1.9-3.8 4.7-8.7 9.8-7.3-0.3 11.8 0.3 26.4 2.9 43-6.1-1-12.3-0.7-17.9 3.3zm17.9-3.3c-2.6-16.6-3.2-31.2-2.9-43 4.2 1.3 9 3.3 13.1 4.6 1.1 12.5 2.9 27.1 5.6 42.6-4.8-1.2-10.3-3.2-15.8-4.2zm15.8 4.2c-2.7-15.5-4.5-30.1-5.6-42.6 3.6 1.1 7.8 2.9 11.3 3.9 2.2 13.2 5.1 27.7 7.9 42.2-4.3-1-8.9-2.2-13.6-3.5zm13.6 3.5c-2.8-14.5-5.7-29-7.9-42.2 3.6 1.1 7.7 2.8 11.2 3.8q4.2 20.1 8.5 40.2c-3.5-0.2-7.5-0.9-11.8-1.8zm-42.1-43.4c0.9-2.6 1.8-4.9 2.7-6.9 2.8-6.4 5.3-9.9 5.3-9.9q1.1 0.4 2.1 0.7-0.2 4.1-0.3 8.8c-5.1-1.4-7.9 3.5-9.8 7.3zm9.8-7.3q0.1-4.7 0.3-8.8 6.1 1.9 12.1 3.8 0.3 4.6 0.7 9.6c-4.1-1.3-8.9-3.3-13.1-4.6zm13.1 4.6q-0.4-5-0.7-9.6 5.2 1.6 10.4 3.3 0.7 4.9 1.6 10.2c-3.5-1-7.7-2.8-11.3-3.9zm11.3 3.9q-0.9-5.3-1.6-10.2 5.3 1.6 10.5 3.2 1.1 5.4 2.3 10.8c-3.5-1-7.6-2.7-11.2-3.8z"/>
							<path id="&lt;Mesh&gt;" class="s44" d="m482.7 216.7c8.9-19.6 17.4-47.6 10.8-75.1-2.4-9.6-5.6-18-9.4-25.2-6.9-0.6-12.3 2.4-17.1 6.5 15 32.9 16 69.5 9.5 106 1.9-3.5 4.1-7.6 6.2-12.2zm-6.2 12.2c6.5-36.5 5.5-73.1-9.5-106-4.2 3.6-7.8 8.1-11.3 11.7 13.3 32.5 16.2 67 16.1 102.3 1.3-2.1 2.9-4.8 4.7-8zm-4.7 8c0.1-35.3-2.8-69.8-16.1-102.3-3.4 3.5-6.7 6.9-9.9 9.9 11.9 31.4 18 64 23.2 96.7 0.7-1 1.6-2.4 2.8-4.3zm-2.8 4.3c-5.2-32.7-11.3-65.3-23.2-96.7-3.2 3.1-6.3 5.7-9.2 7.7q15.7 45.3 31.4 90.5c0 0 0.3-0.5 1-1.5zm15.1-124.8c-7.4-14.3-16.8-24.2-24.6-30.7-3.6-2.3-8.6-5.1-12.2-1.2 6.3 9.9 13.4 22.7 19.7 38.4 4.8-4.1 10.2-7.1 17.1-6.5zm-17.1 6.5c-6.3-15.7-13.4-28.5-19.7-38.4-2.9 3.2-6 7.5-8.8 10.7 5.5 11.3 11.5 24.7 17.2 39.4 3.5-3.6 7.1-8.1 11.3-11.7zm-11.3 11.7c-5.7-14.7-11.7-28.1-17.2-39.4-2.6 2.8-5.2 6.4-7.7 9.2 4.9 12.4 9.9 26.3 15 40.1 3.2-3 6.5-6.4 9.9-9.9zm-9.9 9.9c-5.1-13.8-10.1-27.7-15-40.1-2.5 2.7-5.1 6.3-7.6 9q6.7 19.4 13.4 38.8c2.9-2 6-4.6 9.2-7.7zm13.7-58.8c-2.1-1.8-4.1-3.3-5.9-4.5-5.7-4-9.6-5.7-9.6-5.7q-0.8 0.8-1.5 1.6 2.3 3.4 4.8 7.4c3.6-3.9 8.6-1.1 12.2 1.2zm-12.2-1.2q-2.5-4-4.8-7.4-4.2 4.8-8.4 9.5 2.1 4.1 4.4 8.6c2.8-3.2 5.9-7.5 8.8-10.7zm-8.8 10.7q-2.3-4.5-4.4-8.6-3.6 4.1-7.2 8.2 1.9 4.6 3.9 9.6c2.5-2.8 5.1-6.4 7.7-9.2zm-7.7 9.2q-2-5-3.9-9.6-3.7 4.1-7.3 8.2 1.8 5.2 3.6 10.4c2.5-2.7 5.1-6.3 7.6-9z"/>
						</g>
						<g id="&lt;Group&gt;">
							<path id="&lt;Mesh&gt;" class="s45" d="m483.4 431.1q5.4-1.5 10.8-3-1.5-6.3-3.1-12.6c-3.4 1-6.9 2-10.5 3q1.4 6.3 2.8 12.6zm-2.8-12.6c3.6-1 7.1-2 10.5-3-5.1-20.3-10.2-40.7-15.3-61-2.8 1.1-5.5 2.2-8.7 3.2q6.8 30.4 13.5 60.8zm-13.5-60.8c3.2-1 5.9-2.1 8.7-3.2-5.4-21.2-10.8-42.5-16.1-63.7-2.1 1.1-4.2 2.2-6.8 3.3q7.1 31.8 14.2 63.6zm-14.2-63.6c2.6-1.1 4.7-2.2 6.8-3.3-7.3-28.8-14.9-58-22.1-86.8-1.5 1.1-2.6 2.4-3.9 3.7q9.6 43.2 19.2 86.4zm-19.2-86.4c1.3-1.3 2.4-2.6 3.9-3.7-6.8-27.2-14.2-54.9-21-82.1-0.9 1.1-1.4 2.6-1.1 4.3q9.1 40.7 18.2 81.5zm-18.2-81.5c-0.3-1.7 0.2-3.2 1.1-4.3-1.7-6.8-3.5-13.5-5.2-20.3-0.6 1.2-0.8 2.7-0.4 4.2q2.3 10.2 4.5 20.4zm78.7 301.9q5.6-1.6 11.2-3.1-1.8-6.3-3.5-12.6c-3.7 1-7.3 2-10.8 3.1q1.6 6.3 3.1 12.6zm-3.1-12.6c3.5-1.1 7.1-2.1 10.8-3.1-5.7-20.3-11.4-40.6-17.1-60.9-3.3 0.9-6.2 2-9 3 5.1 20.3 10.2 40.7 15.3 61zm-15.3-61c2.8-1 5.7-2.1 9-3-5.9-21.3-11.8-42.5-17.7-63.7-3 0.8-5.3 1.9-7.4 3 5.3 21.2 10.7 42.5 16.1 63.7zm-16.1-63.7c2.1-1.1 4.4-2.2 7.4-3-8.1-28.9-16-57.8-24.1-86.7-2.3 0.7-4 1.7-5.4 2.9 7.2 28.8 14.8 58 22.1 86.8zm-22.1-86.8c1.4-1.2 3.1-2.2 5.4-2.9-7.6-27.2-15-54.5-22.6-81.6-1.5 0.4-2.9 1.2-3.8 2.4 6.8 27.2 14.2 54.9 21 82.1zm-21-82.1c0.9-1.2 2.3-2 3.8-2.4q-2.9-10.3-5.8-20.6c-1.4 0.4-2.5 1.4-3.2 2.7 1.7 6.8 3.5 13.5 5.2 20.3zm88.8 303.1q5.6-1.6 11.1-3.1-1.9-6.2-3.8-12.4-5.4 1.4-10.8 2.9 1.7 6.3 3.5 12.6zm-3.5-12.6q5.4-1.5 10.8-2.9c-6.1-20-12.3-40.1-18.4-60.1-3.2 0.5-6.4 1.2-9.5 2.1 5.7 20.3 11.4 40.6 17.1 60.9zm-17.1-60.9c3.1-0.9 6.3-1.6 9.5-2.1-6.5-20.9-12.9-42-19.3-62.9-2.6 0.2-5.3 0.5-7.9 1.3 5.9 21.2 11.8 42.4 17.7 63.7zm-17.7-63.7c2.6-0.8 5.3-1.1 7.9-1.3-8.7-28.4-17.3-57.4-26.1-85.8-1.9-0.3-3.8-0.2-5.9 0.4 8.1 28.9 16 57.8 24.1 86.7zm-24.1-86.7c2.1-0.6 4-0.7 5.9-0.4-8.2-26.8-15.7-54.3-24-81.1-1.4-0.6-3-0.6-4.5-0.1 7.6 27.1 15 54.4 22.6 81.6zm-22.6-81.6c1.5-0.5 3.1-0.5 4.5 0.1-2-6.8-3.9-13.4-6-20.1-1.3-0.7-2.8-1-4.3-0.6q2.9 10.3 5.8 20.6zm96.1 302.4q5.4-1.5 10.8-3-2-6.1-4.1-12.2-5.2 1.4-10.5 2.8 1.9 6.2 3.8 12.4zm-3.8-12.4q5.3-1.4 10.5-2.8-9.9-29.6-19.8-59.1c-3 0.7-6.1 1.2-9.1 1.8 6.1 20 12.3 40.1 18.4 60.1zm-18.4-60.1c3-0.6 6.1-1.1 9.1-1.8q-10.3-30.9-20.7-61.8c-2.6 0.4-5.1 0.5-7.7 0.7 6.4 20.9 12.8 42 19.3 62.9zm-19.3-62.9c2.6-0.2 5.1-0.3 7.7-0.7q-14-41.9-28.1-83.9c-2-0.5-3.8-1-5.7-1.2 8.8 28.4 17.4 57.4 26.1 85.8zm-26.1-85.8c1.9 0.2 3.7 0.7 5.7 1.2q-13.3-39.6-26.6-79.2c-0.6-1.6-1.7-2.6-3.1-3.1 8.3 26.8 15.8 54.3 24 81.1zm-24-81.1c1.4 0.5 2.5 1.5 3.1 3.1q-3.3-9.9-6.6-19.8c-0.4-1.5-1.3-2.6-2.5-3.4 2.1 6.7 4 13.3 6 20.1z"/>
							<g id="&lt;Group&gt;">
								<path id="&lt;Mesh&gt;" class="s46" d="m469.5 368.7c2-1 6.8-3.1 9.3-4.2-0.7-3.1-1.6-5.9-2.3-9-2.6 1.1-6.6 2.6-9 4q1 4.6 2 9.2zm-2-9.2c2.4-1.4 6.4-2.9 9-4-0.7-2.9-1.5-6-2.2-8.9-2.6 1.1-5.9 2.6-8.7 4.3q0.9 4.3 1.9 8.6zm11.3 5c3.3-1.4 4.5-1.8 8.7-3q-1.3-4.6-2.5-9.2c-3.3 0.9-5.2 1.8-8.5 3.2 0.7 3.1 1.6 5.9 2.3 9zm-2.3-9c3.3-1.4 5.2-2.3 8.5-3.2q-1.1-4.4-2.3-8.7c-2.6 0.7-5.1 1.6-8.4 3 0.7 2.9 1.5 6 2.2 8.9zm11 6q4.8-1.3 9.7-2.1-1.3-4.6-2.7-9.2-4.8 0.7-9.5 2.1 1.2 4.6 2.5 9.2zm-2.5-9.2q4.7-1.4 9.5-2.1-1.2-4.3-2.5-8.6-4.7 0.7-9.3 2 1.2 4.3 2.3 8.7zm12.2 7.1c3.6-0.6 6.9-1 9.8-1.1q-1.5-4.5-3-9c-2.7 0.1-5.9 0.4-9.5 0.9q1.4 4.6 2.7 9.2zm-2.7-9.2c3.6-0.5 6.8-0.8 9.5-0.9q-1.4-4.2-2.8-8.3c-2.6 0-5.7 0.2-9.2 0.6q1.3 4.3 2.5 8.6z"/>
							</g>
							<g id="&lt;Group&gt;">
								<path id="&lt;Mesh&gt;" class="s47" d="m483.4 431.1c4.1-1.1 7.4-2 11.5-3.1-4-15.5-7.9-31.6-11.9-47.1-3.5 1.6-7.2 3.3-9.7 4.8q5.1 22.7 10.1 45.4zm11.5-3.1c3.2-0.9 7.1-2.1 10.4-3q-6.6-23.6-13.2-47.3c-3.5 1-6.2 2-9.1 3.2 4 15.5 7.9 31.6 11.9 47.1zm10.4-3c3.3-0.9 8.2-2.3 11.5-3.2-4.6-15.4-9.9-30.9-14.5-46.2-3.1 0.4-6.6 1.1-10.2 2.1q6.6 23.7 13.2 47.3zm11.5-3.2c4.1-1.2 6.5-1.8 10.5-2.9q-7.4-22.1-14.8-44.1c-2.9 0-6.3 0.2-10.2 0.8 4.6 15.3 9.9 30.8 14.5 46.2z"/>
							</g>
						</g>
						<g id="&lt;Group&gt;">
							<g id="&lt;Clip Group&gt;" clip-path="url(#cp9)">
							</g>
						</g>
						<g id="&lt;Clip Group&gt;" clip-path="url(#cp10)">
							<g id="&lt;Group&gt;">
								<path id="&lt;Mesh&gt;" class="s48" d="m515.9 557.2c3.2 0.6 6.3 0.9 9.1 1-1-3.5-4.7-6.1-6.8-8.7q-4.6 0.2-9.3-0.2c2.7 2.3 6.1 4.5 7 7.9zm-7-7.9q4.7 0.4 9.3 0.2c-1.3-1.5-2.9-3.1-3.3-5q-4.7 0.3-9.4 0.1c0.5 1.9 1.8 3.3 3.4 4.7zm-3.4-4.7q4.7 0.2 9.4-0.1-0.3-0.9-0.5-1.7-4.6 0.3-9.3 0.2 0.2 0.8 0.4 1.6zm-0.4-1.6q4.7 0.1 9.3-0.2c-4.8-18.9-9.4-38.8-13.8-58.2-2.7 0.6-5.2 1.1-7.9 1.6 3.9 18.8 7.8 38.2 12.4 56.8zm-12.4-56.8c2.7-0.5 5.2-1 7.9-1.6-4.5-19.6-8.8-38.8-13.3-55.7q-3.5 1.4-6.9 3c4.4 16.7 8.3 35.2 12.3 54.3zm-12.3-54.3q3.4-1.6 6.9-3-0.7-2.7-1.4-5.2-3.5 1.5-6.8 3.1 0.7 2.5 1.3 5.1zm44.6 126.3c2.8 0.1 5.5 0 7.9-0.3-1-3.6-4.2-6.4-5.8-9.3q-4.4 0.7-8.9 0.9c2.1 2.6 5.8 5.2 6.8 8.7zm-6.8-8.7q4.5-0.2 8.9-0.9c-0.9-1.7-2.4-3.4-2.9-5.3q-4.6 0.8-9.3 1.2c0.4 1.9 2 3.5 3.3 5zm-3.3-5q4.7-0.4 9.3-1.2-0.2-0.9-0.5-1.7-4.6 0.8-9.3 1.2 0.2 0.8 0.5 1.7zm-0.5-1.7q4.7-0.4 9.3-1.2c-5.1-19.2-10.1-39.3-15-58.9-2.7 0.7-5.3 1.3-8.1 1.9 4.4 19.4 9 39.3 13.8 58.2zm-13.8-58.2c2.8-0.6 5.4-1.2 8.1-1.9-5-19.9-9.7-39.2-14.4-56.5q-3.5 1.2-7 2.7c4.5 16.9 8.8 36.1 13.3 55.7zm-13.3-55.7q3.5-1.5 7-2.7-0.7-2.7-1.4-5.3-3.6 1.3-7 2.8 0.7 2.5 1.4 5.2zm45.6 129c3.3-0.4 6.2-1 8.6-1.6-1-3.7-1.9-7-2.9-10.2-3.6 1-7.5 1.9-11.5 2.5 1.6 2.9 4.8 5.7 5.8 9.3zm-5.8-9.3c4-0.6 7.9-1.5 11.5-2.5-0.5-1.9-1-3.8-1.6-5.7-4.2 1.2-8.5 2.2-12.8 2.9 0.5 1.9 2 3.6 2.9 5.3zm-2.9-5.3c4.3-0.7 8.6-1.7 12.8-2.9q-0.2-0.9-0.5-1.8c-4.2 1.2-8.5 2.2-12.8 3q0.3 0.8 0.5 1.7zm-0.5-1.7c4.3-0.8 8.6-1.8 12.8-3-5.5-19.4-11.1-39.4-16.5-58.9-3.8 1.1-7.5 2.1-11.3 3 4.9 19.6 9.9 39.7 15 58.9zm-15-58.9c3.8-0.9 7.5-1.9 11.3-3-5.5-19.7-10.8-39-15.6-56.6q-5.1 1.4-10.1 3.1c4.7 17.3 9.4 36.6 14.4 56.5zm-14.4-56.5q5-1.7 10.1-3.1-0.7-2.8-1.5-5.5-5.1 1.5-10 3.3 0.7 2.6 1.4 5.3zm47.2 130.1q4.3-1.2 8.4-3.1c-1-3.6-1-7.1-1.3-10.4q-4.9 1.9-10 3.3c1 3.2 1.9 6.5 2.9 10.2zm-2.9-10.2q5.1-1.4 10-3.3c-0.2-1.9-0.4-3.9-1-5.8q-5.2 1.9-10.6 3.4c0.6 1.9 1.1 3.8 1.6 5.7zm-1.6-5.7q5.4-1.5 10.6-3.4-0.2-0.9-0.5-1.7-5.2 1.9-10.6 3.3 0.3 0.9 0.5 1.8zm-0.5-1.8q5.4-1.4 10.6-3.3c-5.5-19.2-11.4-39.1-17.1-58.4q-4.9 1.4-10 2.8c5.4 19.5 11 39.5 16.5 58.9zm-16.5-58.9q5.1-1.4 10-2.8c-5.7-19.7-11.3-38.9-16.1-56.2q-4.6 1-9.5 2.4c4.8 17.6 10.1 36.9 15.6 56.6zm-15.6-56.6q4.9-1.4 9.5-2.4-0.7-2.7-1.4-5.4-4.6 1-9.6 2.3 0.8 2.7 1.5 5.5zm45.5 130.1q3.9-1.8 7.5-4.2c-1-3.5 0-7.1 0.3-10.4q-4.4 2.4-9.1 4.2c0.3 3.3 0.3 6.8 1.3 10.4zm-1.3-10.4q4.7-1.8 9.1-4.2c0.3-2 0.4-3.9-0.2-5.8q-4.8 2.3-9.9 4.2c0.6 1.9 0.8 3.9 1 5.8zm-1-5.8q5.1-1.9 9.9-4.2-0.2-0.8-0.5-1.7-4.8 2.3-9.9 4.2 0.3 0.8 0.5 1.7zm-0.5-1.7q5.1-1.9 9.9-4.2c-5.6-18.7-11.8-38.1-17.8-57.1-3 1-6 1.9-9.2 2.9 5.7 19.3 11.6 39.2 17.1 58.4zm-17.1-58.4c3.2-1 6.2-1.9 9.2-2.9-6.1-19.3-12-38-16.8-54.9q-4 0.6-8.5 1.6c4.8 17.3 10.4 36.5 16.1 56.2zm-16.1-56.2q4.5-1 8.5-1.6-0.7-2.6-1.4-5.2-4.1 0.6-8.5 1.4 0.7 2.7 1.4 5.4zm43.5 128.3q3.6-2.3 6.9-5.2c-1-3.5 0.8-7 1.9-10.4q-4.1 2.9-8.5 5.2c-0.3 3.3-1.3 6.9-0.3 10.4zm0.3-10.4q4.4-2.3 8.5-5.2c0.7-2 1.1-3.9 0.5-5.8q-4.4 2.9-9.2 5.2c0.6 1.9 0.5 3.8 0.2 5.8zm-0.2-5.8q4.8-2.3 9.2-5.2-0.3-0.8-0.5-1.6-4.4 2.8-9.2 5.1 0.3 0.9 0.5 1.7zm-0.5-1.7q4.8-2.3 9.2-5.1c-5.7-18.3-12.3-36.9-18.7-55.1q-4 1.6-8.3 3.1c6 19 12.2 38.4 17.8 57.1zm-17.8-57.1q4.3-1.5 8.3-3.1c-6.4-18.3-12.7-36.2-17.5-52.7q-3.6 0.3-7.6 0.9c4.8 16.9 10.7 35.6 16.8 54.9zm-16.8-54.9q4-0.6 7.6-0.9-0.8-2.6-1.5-5.1-3.6 0.2-7.5 0.8 0.7 2.6 1.4 5.2z"/>
								<g id="&lt;Group&gt;">
									<path id="&lt;Compound Path&gt;" fill-rule="evenodd" class="s49" d="m556.8 415.5l1 3.7c-12.1-1.3-30.3 0.4-51.3 6.4-21 6-37.4 14.1-47 21.6l-1-3.8c11.2-8.2 28.9-16.1 47-21.2 18.1-5.2 37.3-7.8 51.3-6.7zm2.6 9.2l1 3.7c-12.1-1.3-30.3 0.4-51.3 6.4-21 5.9-37.4 14.1-47 21.5l-1-3.7c11.2-8.3 28.9-16.1 47-21.3 18.2-5.1 37.3-7.8 51.3-6.6zm2.6 9.1l1 3.7c-12.1-1.2-30.3 0.5-51.3 6.4-21 6-37.4 14.1-47 21.6l-1-3.7c11.2-8.3 28.9-16.2 47-21.3 18.2-5.2 37.3-7.8 51.3-6.7z"/>
									<path id="&lt;Compound Path&gt;" fill-rule="evenodd" class="s50" d="m557 416.5l1.1 3.7c-12.1-1.3-30.3 0.4-51.3 6.4-21 6-37.4 14.1-47 21.6l-1.1-3.8c11.3-8.2 29-16.1 47.1-21.2 18.1-5.2 37.3-7.8 51.2-6.7zm2.7 9.2l1 3.7c-12.1-1.3-30.3 0.4-51.3 6.4-21 5.9-37.4 14.1-47 21.5l-1-3.7c11.2-8.3 28.9-16.1 47-21.3 18.1-5.1 37.3-7.8 51.3-6.6zm2.6 9.1l1 3.7c-12.1-1.2-30.3 0.5-51.3 6.4-21 6-37.4 14.1-47 21.6l-1-3.7c11.2-8.3 28.9-16.2 47-21.3 18.1-5.1 37.3-7.8 51.3-6.7z"/>
								</g>
								<g id="&lt;Group&gt;">
									<path id="&lt;Compound Path&gt;" fill-rule="evenodd" class="s51" d="m535.8 531.1c-18.1 5-37.3 7.4-51.3 6.1l-1-3.7c12.1 1.4 30.3-0.1 51.4-5.8 21.1-5.8 37.5-13.7 47.2-21l1.1 3.7c-11.4 8.1-29.2 15.8-47.4 20.7zm-2.5-9.2c-18.1 5-37.3 7.4-51.3 6.1l-1-3.7c12.1 1.4 30.3-0.1 51.4-5.8 21.1-5.8 37.5-13.7 47.2-21l1.1 3.7c-11.4 8.2-29.2 15.8-47.4 20.7zm-2.5-9.2c-18.1 5-37.3 7.4-51.3 6.1l-1-3.7c12.1 1.4 30.3-0.1 51.4-5.8 21.1-5.7 37.5-13.7 47.2-21l1.1 3.7c-11.4 8.2-29.2 15.8-47.4 20.7z"/>
									<path id="&lt;Compound Path&gt;" fill-rule="evenodd" class="s52" d="m535.6 530.1c-18.2 5-37.4 7.4-51.3 6.1l-1-3.7c12 1.4 30.2-0.1 51.3-5.8 21.1-5.8 37.6-13.7 47.3-21l1 3.7c-11.4 8.1-29.2 15.8-47.3 20.7zm-2.5-9.2c-18.2 5-37.4 7.4-51.3 6.1l-1-3.7c12 1.4 30.2-0.1 51.3-5.8 21.1-5.8 37.6-13.7 47.3-21l1 3.7c-11.4 8.1-29.2 15.8-47.3 20.7zm-2.5-9.2c-18.2 5-37.4 7.4-51.3 6.1l-1-3.7c12 1.4 30.3-0.1 51.3-5.8 21.1-5.7 37.6-13.7 47.3-21l1 3.7c-11.4 8.2-29.2 15.8-47.3 20.7z"/>
								</g>
								<g id="&lt;Group&gt;">
									<path id="&lt;Path&gt;" class="s53" d="m518.3 476.4c-11.3-46.3-26.8-82.2-34.6-80.3-7.8 1.9-5 40.9 6.3 87.2 11.3 46.3 26.7 82.2 34.6 80.3 7.8-1.9 4.9-40.9-6.3-87.2z"/>
									<path id="&lt;Path&gt;" class="s54" d="m515.7 477.1c-10.7-43.8-24.5-77.9-30.9-76.4-6.3 1.6-2.9 38.3 7.8 82 10.7 43.7 24.5 77.9 30.8 76.3 6.4-1.5 2.9-38.2-7.7-81.9z"/>
								</g>
								<g id="&lt;Group&gt;">
									<path id="&lt;Path&gt;" class="s55" d="m540.7 553.6c-15-19.7-32.3-31.8-38.7-26.9-6.4 4.8 0.5 24.8 15.5 44.5 15 19.7 32.3 31.7 38.7 26.9 6.4-4.9-0.6-24.8-15.5-44.5z"/>
									<path id="&lt;Path&gt;" class="s56" d="m538.5 555.2c-14.1-18.6-29.8-30.5-35-26.6-5.3 4 2 22.3 16.1 40.9 14.2 18.7 29.9 30.6 35.1 26.6 5.2-4-2-22.3-16.2-40.9z"/>
								</g>
							</g>
						</g>
					</g>
				</g>
			</g>
		</g>
	</g>
</svg>