<svg version="1.2" xmlns="http://www.w3.org/2000/svg" viewBox="0 0 344 344" width="344" height="344">
	<title>&lt;Group&gt;</title>
	<style>
		.s0 { fill: #ffffff } 
		.s1 { fill: #fef5e6 } 
		.s2 { fill: #f4d2af } 
		.s3 { fill: #b93724 } 
		.s4 { fill: #1a3337 } 
		.s5 { fill: #e2f6ff } 
		.s6 { fill: #ae7651 } 
		.s7 { fill: #bfafae } 
		.s8 { fill: #f9cea6 } 
		.s9 { fill: #e7e2c8 } 
		.s10 { fill: #d9d7b8 } 
		.s11 { fill: #425053 } 
		.s12 { fill: #5c1501 } 
		.s13 { fill: #b6b7c1 } 
		.s14 { fill: #8d5d4b } 
		.s15 { fill: #afb7a6 } 
		.s16 { fill: #b97a64 } 
		.s17 { fill: #000000 } 
		.s18 { fill: #001a1e } 
		.s19 { fill: #798e84 } 
		.s20 { fill: #603913 } 
		.s21 { fill: #2d0d00 } 
		.s22 { fill: #ac988e } 
		.s23 { fill: #5e4439 } 
		.s24 { fill: #6e5043 } 
		.s25 { fill: #470c00 } 
		.s26 { fill: #561a00 } 
		.s27 { fill: #eae0c7 } 
		.s28 { fill: #bb9d70 } 
		.s29 { fill: #340300 } 
		.s30 { fill: #92949c } 
		.s31 { fill: #93959e } 
		.s32 { fill: #c66344 } 
	</style>
	<g id="&lt;Group&gt;">
		<path id="&lt;Path&gt;" class="s0" d="m225.8 204.8h-199c-13.2 0-24-10.8-24-24v-133.9c0-13.2 10.8-24 24-24h199c13.2 0 24 10.8 24 24v133.9c0 13.2-10.8 24-24 24z"/>
		<path id="&lt;Path&gt;" class="s1" d="m289.8 309.4c0 0-1.6 5.4 2.7 9.4 4.3 4.1 8.4 4.8 8.4 4.8l9.7 0.7 8.8-1.8 0.7-6.8 4.3-4.3 2.2-3.4-9-33.4-4.8-14.7c0 0-0.2-22.8-0.9-31-0.7-8.1-2.5-26.8-2.5-26.8l-1.8-10.4 2.1-11.3c0 0 17.1-1.6 24.6-6.6 7.4-5 4.7-7.9 4.7-7.9l-0.6-5.4-3-6.6c0 0-4.7-13.7-5.6-19.6-0.9-5.9-3-12.2-3-12.2l-7-10.4-3.6-4.1-0.9-7c0 0-4.1-13.5-4.7-19.2-0.7-5.6-0.7-9.5-0.7-9.5 0 0 1.1-12.4-0.9-17.4-2-4.9-4.8-11.3-4.8-11.3l-6.1-9.2-1.1-9.7c0 0-0.9-7.7-10.6-15.6-9.7-7.9-23.3-7.7-23.3-7.7-5.9 0.1-12.2 1.6-15.9 6.4-2.1 2.7-1.9 6.9-1.2 10.1l-5.7 3.2-2.5 2.2-4.7 1.6c0 0 1.1 3.2 3.4 5.2 2.2 2 3.6 2.2 3.6 2.2l0.9 3.9-0.9 16c0 0-1.4 11.3-1.4 14.7 0 3.4 1.4 14.9 0.7 20.3-0.7 5.5-1.8 12-1.8 12l-2.7 7.5c0 0-4.5 0-7 2.9-2.5 2.9-6.1 7.7-6.1 7.7l-6.1 7.2-14 11.8-14.2-3.2-17.7-6.8-8.8-4.3-3.1 6.6 3.3 3.1-0.4 12-4.7-2.9 0.4 9 2 0.7c0 0 11.3-0.7 14.5 0.2 3.2 0.9 23.3 4.5 23.3 4.5l11.7 0.7 6.6-0.7 12.4-9 8.8-5.2c0 0-0.5 17.9 2.5 31.4 2.9 13.6 5.2 21 5.2 21 0 0 2.2 13.3 1.6 19.7-0.7 6.3-1.4 12.8-1.4 12.8 0 0-2.3 25.3-2.7 30.1-0.5 4.7-0.2 17.4-0.2 17.4l-1.4 18.7c0 0-0.4 5.5 1.1 7.3 1.6 1.8 7.3 3.4 7.3 3.4l10.1 0.4 13.6-0.2c0 0 14.9 3.4 18.3 6.8z"/>
		<path id="&lt;Path&gt;" class="s2" d="m239.8 25.8c0 0-0.6 3.9 0.1 6.5 0.7 2.6 2 4.2 2 4.2 0 0 3.4 3.4 4 6.1 0.6 2.7 0.6 7.3 0.6 7.3l-1.7 7.4c0 0 9.4-2.2 11.3-2.6 2-0.4 4-0.5 4-0.5 0 0 1.9 0.5 3.4 0.4 1.4-0.2 2.4-0.1 2.4-0.1l9.8 2.2 5 1.6c0 0 5.6-4.3 6.8-5.8 1.3-1.6 4.3-5.4 4.3-5.4l1.1-2-1.1-8c0 0-3.2-4-6.2-5.3-3-1.2-5.4-2.6-5.4-2.6l-4.5-4.7c0 0-3-2.7-4.3-2.5-1.4 0.2-3.1 0.5-3.1 0.5l-3.2 1.7c0 0-2.2 1.4-4.3 0.3-2.1-1-4.1-2.3-5.5-2-1.5 0.2-3.7 2.3-3.7 2.3 0 0-1.8 2.7-5.4 2.4-3.5-0.3-6.4-1.4-6.4-1.4z"/>
		<path id="&lt;Path&gt;" class="s3" d="m285.5 141.5c0 0 6.1-5.4 9.9-7.4 3.9-2.1 8.8-4.1 8.8-4.1l4.6 8.3 4.5 8.4 2 6.6-0.4 2.4-16.3 6.1z"/>
		<path id="&lt;Path&gt;" class="s3" d="m326.6 121.4l9-3.8 1.6 4.3h5.2l-2 15.5 2 13.8-7 2.7c0 0-4-7.9-5-14.9-0.9-7-2.7-15.3-3.8-17.6z"/>
		<path id="&lt;Path&gt;" class="s4" d="m248.1 303.4q-0.6 0.2-1.2 0.4c-7.5 2.9-14.8 6.2-22.2 9.4 0 0-1.3 0.4-1.8 2.3-0.4 1.8 0.5 6.1 0.5 6.1 0 0 11 2.2 16.2 2.2 5.2 0 14.3-2.2 14.3-2.2l9.9-4.8 3.6-0.4 6.8 1.1c0 0 1.1-2.9 1.1-4.8 0-1.8 0-1.8 0-1.8-1.2-2.8-2-4.2-2-7.4 0-0.2 0-0.4-0.2-0.6-0.1-0.1-0.3-0.1-0.5-0.1-3.7 0-7.5-0.5-11.3-0.7-1.7-0.1-3.6 0.4-5.4 0.5-2.8 0.2-5.2 0.1-7.8 0.8z"/>
		<path id="&lt;Path&gt;" class="s4" d="m294.5 320.7l-1.3 8.1-1.2 6.1c0 0-0.6 1.3-0.2 3.1 0.5 1.9 2.1 3.2 2.1 3.2 0 0 16.9 1.4 20.3 0.9 3.4-0.4 11.3-3.2 11.3-3.2l3.4-1.8 0.4-6.3-5.6-4-4.3-4.3c0 0-5.9 2.2-13.3 1.3-7.5-0.9-11.6-3.1-11.6-3.1z"/>
		<path id="&lt;Path&gt;" class="s4" d="m298.1 34c0 0 0.1-1.7 0.4-3.4 0.3-1.6-0.2-3.6-0.8-5-0.7-1.3-14-9-14-9l-7.9-4c0 0-7.8-3-13.9-4-6-1-11.5-0.5-11.5-0.5l-6.5 2.1-2 4.7c0 0-2 2.5-2 4 0 1.5 0.4 1.8 0.4 1.8l2.4-0.4c0 0 9.7-3.5 16.4-3.5 6.7 0 12 1.8 12 1.8 0 0 10.2 3.3 13.4 5 3.2 1.7 13.6 10.4 13.6 10.4z"/>
		<path id="&lt;Path&gt;" class="s4" d="m240.9 31.1l2.5 2.7 10-5.3 3.4 0.5-1.9-1.9c0 0-12 1.9-14 4z"/>
		<path id="&lt;Path&gt;" class="s4" d="m269.4 27.1l-1.3 3.5 11.7 1.7c0 0-8.9-4.7-10.4-5.2z"/>
		<path id="&lt;Path&gt;" class="s4" d="m292.3 47.1c0 0-4.2 6-7.4 8.8-3.3 2.9-5.2 4.4-5.2 4.4l-15.1-3.7h-6l-10.4 1.7-4.4 1.3c0 0-1.9 1.5-2.2 2.5-0.3 1 0.1 2.6 0.1 2.6l3.5 11 0.7 3.7c0 0 1.6 4.3 3.7 5.8 2.2 1.4 5.5 2.8 5.5 2.8l8.4 4.6c0 0 4.5 1.1 6.6-0.1 2.1-1.2 8.2-6.6 8.2-6.6l6.4-5.9c0 0 3.1-4.2 3.3-7 0.1-2.8 1.3-6.7 1.3-6.7l2.6-7.2 1.9-3.6z"/>
		<path id="&lt;Path&gt;" class="s2" d="m252.3 65c0 0-1.9-0.9-2.1 0.5-0.3 1.4 0.3 3.7 0.3 3.7l4.3 7.2 8.1 6.8 2-3.7c0 0 1.5-0.4 2.8 1.1 1.3 1.5 1.8 1.9 1.8 1.9 0 0 4.4-5.8 6-9.9 1.5-4 3.3-11.3 3.3-11.3 0 0-8.5 2.8-16.6 3.3-8 0.5-9.9 0.4-9.9 0.4z"/>
		<path id="&lt;Path&gt;" class="s5" d="m248.9 37.4l-0.4 3.5c0 0 0 2.4 1.9 3.1 1.9 0.7 3.9 0.2 3.9 0.2 0 0 2.5-1 3.1-2.9 0.5-1.8 0.6-3.4 0.6-3.4l-0.4-1.2c0 0-5-1-8.7 0.7z"/>
		<path id="&lt;Path&gt;" class="s5" d="m273.4 37.7c0 0-0.9 1.4-1 2.2 0 0.9 0.4 2.7 0.4 2.7 0 0 0.6 2.2 3.5 3.1 2.9 0.8 4.3-0.7 4.3-0.7 0 0 1.3-1.6 1.5-2.7 0.2-1.2-0.1-2.2-0.1-2.2 0 0-5.5-2.6-8.6-2.4z"/>
		<path id="&lt;Path&gt;" class="s2" d="m255.7 86.4l0.3 7.8 3.2 0.3 14.2 0.4 9.7-1.3c0 0-1-5.1-1-6.2 0-1.1-0.2-6-0.2-6l-5.3 5.1-4.8 3.7c0 0-3.3 1.5-5.6 0.8-2.4-0.7-10.2-5.1-10.5-4.6z"/>
		<path id="&lt;Path&gt;" class="s2" d="m161.2 131.3l-3.2-2.5-2.9-9.9c0 0-2.1-5.3-4-5.7-1.9-0.4-4.8-0.2-4.8-0.2 0 0-2.8-0.3-4.5-3.5-1.7-3.2-2.6-1.6-2.6-1.6 0 0-1.8 0.4-2.3 2.5-0.4 2.1 0.1 2.3 0.1 2.3l-4.7-1.7c0 0-2.9-1.2-3.7 1.5-0.9 2.6-0.4 4.5-0.4 4.5l1.4 2.4 2.1 1.2c0 0-0.6 2.5 0.9 4.8 0.4 0.6 0.5 1.2 0.6 1.9 0.3 1.5 0.8 2.9 1.9 3.9 0.4 0.4 1 0.7 1.2 1.3 0.4 0.8-0.3 1.8-0.2 2.8 0.1 0.8 0.7 1.4 1.2 1.9q0.8 0.7 1.5 1.4c0.7 0.7 1.6 1.5 2.6 1.5 0.7 0.1 1.5-0.3 2.1-0.7 0.7-0.3 1.3-0.8 2.1-1 1-0.3 2 0 3-0.1 0.7 0 1.5 0.2 2.3 0.2q1.1 0.1 2.3 0.2c0.2 0.1 0.8 0 1 0.1l6.2 4.7z"/>
		<path id="&lt;Path&gt;" class="s6" d="m96.2 80.6l37.3 30.9 4.2 1.6-1.2-1.7-40.1-31.4c0 0-0.7-0.1-0.2 0.6z"/>
		<path id="&lt;Path&gt;" class="s6" d="m142.7 121.7l3 2.3c0 0 0.9 0.3 1.2-0.1 0.3-0.4 0.9-0.8 0.6-1.6-0.3-0.7-3.6-3.5-3.6-3.5 0 0 0.3 1.4-0.3 2-0.6 0.7-0.9 0.9-0.9 0.9z"/>
		<path id="&lt;Path&gt;" class="s7" d="m223.2 314.8c0 5.8 13.4 5.4 17 5 5.4-0.6 9.7-2.3 9.7-2.3 0 0 8.3-4.5 11.2-4.8 2.8-0.4 7.5 0 7.5 0l6.7-1.8c0 0 1.1 1.2 0.2 3.4-0.9 2.1-1.3 3.2-1.3 3.2l-7.1-0.4c-0.1-0.9-6.7 1.6-6.7 1.6 0 0-8.8 4.1-14.3 4.6-5.5 0.6-10.8 0.6-10.8 0.6l-11.9-2.3c-1.4-0.4-0.4-6-0.2-6.8z"/>
		<path id="&lt;Path&gt;" class="s7" d="m291.5 336.2c0 0 0.2 3.2 1.8 4.6 1.6 1.4 6.8 1.4 6.8 1.4 0 0 10.1 0.9 16 0.2 5.9-0.7 10.5-3.6 10.5-3.6l2.3-1.7 0.4-6.3c0 0-1.8 3.8-7.7 4.7-5.9 0.8-12.8 1.7-12.8 1.7l-11.8-0.1z"/>
		<path id="&lt;Path&gt;" class="s8" d="m256.5 302.7l4.8 3 3.2 3.4 3.2-3.9 3.8-2.6c0 0-8.6-0.1-15 0.1z"/>
		<path id="&lt;Path&gt;" class="s9" d="m272.8 221.5c0 0-8.2-23.5-11.2-21.9-3 1.6 7.3 25.1 7.7 45.9 0.2 15.5 1.1 32.9-4.4 47.6-1.1 2.8-2.3 5.7-4.8 7.3-3.6 2.3-8.4 1-12.5 2.1 0.5-0.2 2.4 0.9 3.1 1 1.1 0.1 1.8-0.2 2.7-0.5 2.1-0.5 4.1-0.8 6.3-0.9 3.4-0.3 8.5-1.1 11.8 0.5 3.8 1.9 18.3 6.8 18.3 6.8 0 0 2.1-16.7 2.1-28.8 0-12.1-0.7-29.9-2.2-19.2-1.4 10.7-6.7-3.8-6.7-3.8z"/>
		<path id="&lt;Path&gt;" class="s9" d="m313.4 260.5c0 0 4.3 24.7 6.6 31.2 2.3 6.4 5.9 17 5.9 17l-3.4 4.5c0 0-2.7 2.3-2.7 1.8 0-0.6-1.2-12.7-2.6-18.5-1.5-5.9-2.2-16.4-3.6-7.9-1.4 8.6-3 16.6-2.1 8.2 0.9-8.4 0.9-16.7 0.9-16.7z"/>
		<path id="&lt;Path&gt;" class="s10" d="m294.2 54.3c0 0-4 9.3-4.4 11.1-0.3 1.7-1 6.7-1 6.7 0 0-0.2 2.4-2 4.5-1.7 2.1-4.9 4.8-4.9 4.8l0.4 9.8 0.8 2.4 2.1-2.4c0 0 0.9 1.8 1.1 3.7 0.2 1.9 1.4 4.7 3.7 5.3 2.3 0.5 6.8 1 6.8 1 0 0 0.4-13 0-22.8-0.3-9.8-1.9-23-2.6-24.1z"/>
		<path id="&lt;Path&gt;" class="s10" d="m239.8 25.8l-0.4 3.1v2.4c0 0-3.3-1.5-4.7-3.8-1.4-2.3-1.6-3-1.6-3 0 0 5-0.4 6.7 1.3z"/>
		<path id="&lt;Path&gt;" class="s10" d="m241 35.8c0 0 4.2 3.2 4.9 6.8 0.7 3.7 0.6 7.3 0.6 7.3l-0.8 4.6-0.9 3.1c0 0-2.6 0.9-2.2 3.2 0.3 2.3 3.1 11.4 3.1 11.4l1.1 6.5 3.2 4.4 6.1 2.9-0.2 5.9-2.8 1.1c0 0 1.1 6.3-3.8 8.7-5 2.5-9.4 3.7-9.4 3.7l-5.6 0.4c0 0 4.1-6.2 5.1-17.6 1.1-11.4-1.2-18.8-1-23.2 0.1-4.3 1.5-14.4 1.5-14.4 0 0 0.6-14 1.1-14.8z"/>
		<path id="&lt;Path&gt;" class="s11" d="m248.3 9.1c0 0-2.7 2.3-2.3 3.2 0.4 0.8 1.9 0.7 1.9 0.7 0 0 11-1.3 19.2 1 8.2 2.3 21.7 8.7 21.7 8.7 0 0 4.2 0.3 2.3-1.5-1.9-1.8-9.9-6.1-15.3-8.6-5.4-2.5-19.7-6.9-27.5-3.5z"/>
		<path id="&lt;Path&gt;" class="s11" d="m246.5 14c0 0-2.2 1.7-1.1 2.9 1 1.1 4.8 0.6 4.8 0.6 0 0 8.7-1.8 17 0.2 8.3 2.1 21.9 8.5 21.9 8.5 0 0-0.4-1.9-2.9-3.6-2.4-1.7-19.2-8-22.8-8.7-3.6-0.6-10.5-0.9-10.5-0.9z"/>
		<path id="&lt;Path&gt;" class="s9" d="m235 125.3c0 1.3-6.9 7.3-8 8.7-4.2 4.9-8.8 9.6-13.5 14.2-0.2 0.2-0.5 0.5-0.8 0.5-0.4 0-0.8-0.3-1.1-0.6q-1.3-1.2-2.6-2.5 0.8 2.2 1.3 4.5c-16.9-2.1-32.8-6.9-48.9-12.3l-1.2 6.8-3.3 5.4c0 0 11.3-1.1 18.4 0.4 7.2 1.4 27.1 4.5 27.1 4.5l12.2-0.1 13.8-10.2 7.4-4c0 0-0.8-15.3-0.8-15.3z"/>
		<path id="&lt;Path&gt;" class="s10" d="m286.3 25.4l1.7 8.6c0 0 3.4 2.8 3.4 2 0-0.9-1.7-8.6-1.7-8.6z"/>
		<path id="&lt;Path&gt;" class="s12" d="m302 131.6l8.4 21.9-3.8 6.3q1.7-0.9 3.5-1.7c1.2-0.6 3.7-1.3 4.6-2.3 1.5-1.6-0.4-6.2-1.1-8.1-1.2-2.9-2.9-5.7-4.4-8.5q-2.5-4.6-5-9.2z"/>
		<path id="&lt;Path&gt;" class="s13" d="m240.9 34.5c-0.9 5.4-0.5 10.7-1 16.1-0.6 6.5-1.9 12.2-1.5 18.9 0.4 6.1 1.6 12.3 1.1 18.4-0.5 6.3-2.6 12.2-4.9 18 0 0.2 0.2 0.2 0.2 0.1 4.4-10.9 5.4-20.1 4.3-31.8-0.7-7.5-0.1-13.9 0.8-21.3 0.7-6.1 0.1-12.2 1.1-18.3 0-0.1-0.1-0.2-0.1-0.1z"/>
		<path id="&lt;Path&gt;" class="s14" d="m246.1 36c3.9-2.3 8.1-2.7 12.5-1.8 0.3 0.1 0.4-0.4 0.1-0.5-4.3-1.4-9-0.4-12.7 2.1-0.2 0.1 0 0.3 0.1 0.2z"/>
		<path id="&lt;Path&gt;" class="s15" d="m248.4 40.3c-0.6 3.1 2.8 5.2 5.6 4.3 3.2-0.9 5.2-4.9 3.8-8.1-0.1-0.1-0.3 0-0.3 0.1 0 2.6 0.3 5.1-2.1 6.8-2.6 1.8-7.3 0.8-6.7-3.1 0.1-0.1-0.2-0.2-0.3 0z"/>
		<path id="&lt;Path&gt;" class="s14" d="m272 34.6c2 0 3.9-0.1 5.9 0.3 1.7 0.4 3.2 1.2 4.9 1.8 0.2 0 0.3-0.3 0.1-0.4-2.9-2-7.5-2.8-10.9-2-0.2 0-0.2 0.3 0 0.3z"/>
		<path id="&lt;Path&gt;" class="s15" d="m273.1 37.8c-2.4 3.1 0.3 7.8 3.8 8.4 3.2 0.5 7.2-2.9 5.3-6.2-0.1-0.2-0.4-0.1-0.4 0.1 0.2 1.4 0.3 2.6-0.6 3.8-1 1.6-2.9 2.1-4.6 1.7-1.7-0.4-3-1.7-3.5-3.3-0.5-1.6-0.1-2.9 0.2-4.4 0-0.1-0.1-0.2-0.2-0.1z"/>
		<path id="&lt;Path&gt;" class="s16" d="m239.5 25.4c-0.3 4.4-0.6 7.8 2.4 11.2 4.9 5.9 4.9 13.3 2.5 20.5-0.1 0.2 0.3 0.4 0.4 0.2 2-4.8 3.2-12.2 0.7-17.1-0.9-1.9-2.7-3.1-3.9-4.9-2-3-1.8-6.3-1.6-9.9 0-0.3-0.5-0.3-0.5 0z"/>
		<path id="&lt;Path&gt;" class="s17" d="m297.6 31.9q0.1 1.2 0.1 2.4c0.1 0.6 1 0.6 1 0q-0.1-1.2-0.2-2.4c0-0.6-1-0.6-0.9 0z"/>
		<path id="&lt;Path&gt;" class="s18" d="m261.9 13.2c-6.6-1.2-14.6-1.7-20.5 1.6-0.4 0.2-0.2 0.9 0.3 0.8 6.8-2.6 13-2.3 20.1-2.3 0.1 0 0.1-0.1 0.1-0.1z"/>
		<g id="&lt;Group&gt;">
			<path id="&lt;Path&gt;" class="s18" d="m294 54.4c-1.4 3.2-2.8 6.3-3.9 9.6-1.1 3.9-1 8.3-3 11.8-1.9 3.2-5.1 5.5-7.9 7.9-2.3 1.9-4.5 4.3-7.2 5.7-2.7 1.5-5.6 0.2-8.3-0.8-4.1-1.6-8.2-3.4-11.9-5.7-1.2-0.7-2.4-1.4-3.2-2.5-1.3-1.8-1.9-4.7-2.4-6.8-0.8-3-1.8-5.9-2.6-8.8-0.7-2.6-1.6-5.3 1.4-6.8 0.9-0.4 1.8-0.7 2.8-0.9 4.4-1 8.7-1.9 13.1-2.9-5.3-0.5-10.5 1-15.6 2.5-0.7 0.3-1.5 0.5-2.1 1-2.2 2-0.1 6.3 0.5 8.4q1.2 3.8 2.2 7.6c0.4 1.7 0.6 5.3 1.5 6.7 2.2 3.5 9.7 6.4 13.3 8.3 1.9 1 3.7 1.8 5.9 2.2q0.8 0.2 1.7 0.2c5.5 0.2 8.2-4.7 12-8 2.9-2.5 6.1-4.9 7.7-8.5 1.2-2.6 1.2-5.6 1.8-8.3 1-4.1 2.7-7.9 4.4-11.8 0.1-0.1-0.2-0.3-0.2-0.1z"/>
			<path id="&lt;Path&gt;" class="s18" d="m273 56.8q3.2 0.9 6.4 1.8c0.3 0.1 0.7 0.2 1 0.1 0.3 0 0.5-0.2 0.7-0.4 5.1-3.9 9.6-8.3 12.8-13.9 0.1-0.2-0.3-0.4-0.5-0.2-2 2.8-4 5.5-6.3 8-2 2-4.3 3.8-6.4 5.6-2.3-1.1-5-1.5-7.4-2.1-2.6-0.7-5.3-1.5-8.1-1.7-0.2 0-0.3 0.3-0.1 0.4 2.1 1 4.5 1.4 6.7 2q0.6 0.2 1.2 0.4z"/>
		</g>
		<path id="&lt;Path&gt;" class="s19" d="m240.3 20.3c-2.1 1.8-4.1 3.2-6.9 3.7-0.5 0.1-0.3 0.9 0.2 0.8 2.6-0.5 5.6-1.9 7-4.2 0.2-0.3-0.1-0.5-0.3-0.3z"/>
		<path id="&lt;Path&gt;" class="s13" d="m233.2 24.9c0.1 1.6 1 2.8 2.1 3.9 1 1.1 2.4 2.3 3.9 2.8 0.2 0 0.4-0.3 0.2-0.4-2.3-1.4-5.6-3.4-6.1-6.3 0-0.1-0.1 0-0.1 0z"/>
		<path id="&lt;Path&gt;" class="s13" d="m291.9 39.6c-0.5-3.1-3.5-5.4-5.9-6.7q-1.1-0.7-2.3-1.3c-2.1-1-4.3-2.2-6-3.8-0.5-0.6-1.1-1.2-1.6-1.7-2.1-2.5-4.2-4.8-7.6-3.2q-0.5 0.3-1 0.6c-2.1 1-4.4 2.3-6.9 1.4-0.6-0.2-1.2-0.5-1.8-0.8-1.7-0.9-3.4-1.7-4.9-0.6-0.7 0.4-1.3 1-1.9 1.5-1.2 1.1-2.5 2.3-4.3 2.6-2.2 0.5-4.4-0.3-6.5-1q-0.6-0.2-1.2-0.4-0.3-0.1-0.7-0.3c-1.5-0.5-4.5-1.6-5.5-0.8l-0.6-0.8c1.3-1 3.9-0.2 6.4 0.7q0.4 0.2 0.7 0.3 0.6 0.2 1.2 0.4c2 0.7 4 1.4 6 1 1.6-0.3 2.7-1.3 3.9-2.4 0.6-0.5 1.2-1.1 1.9-1.6 2.1-1.3 4.1-0.4 5.9 0.5 0.6 0.3 1.2 0.6 1.7 0.8 2.1 0.7 4.2-0.3 6.1-1.4q0.6-0.3 1.1-0.5c4-2 6.5 0.8 8.7 3.3q0.8 0.9 1.6 1.7c1.6 1.6 3.7 2.6 5.7 3.7q1.2 0.6 2.4 1.2c3.7 2.1 5.9 4.7 6.3 7.5z"/>
		<path id="&lt;Compound Path&gt;" fill-rule="evenodd" class="s18" d="m279.1 62q-0.2 1.1-0.7 2.1 0 0 0 0c-0.8 3.6-1.9 7.2-3.3 10.5-0.8 1.7-1.7 3.4-2.7 4.9-0.2 0.3-2.9 3.9-3.1 3.6-0.8-1.1-2-2-3.1-2.8-0.3-0.2-0.9-0.6-1.3-0.4-0.2 0.1-0.7 1.1-0.8 1.3-0.4 0.8-0.8 1.6-1 2.4-1.1 0.3-3.1-1.7-3.9-2.3q-2-1.6-3.8-3.4c-2.2-2.4-4.2-5.2-5.2-8.3-0.4-1.1-1-3.8-0.3-5 0-0.1 0-0.2 0.1-0.2 0.2 0 0.7-0.3 0.8-0.3 0.3-0.1 0.7 0 1 0 1.1 0.1 2.2 0.4 3.3 0.5 1.2 0 2.4 0 3.6-0.1q3.5-0.1 7-0.5c2.4-0.3 4.7-0.7 7.1-1.2 0.8-0.2 5.9-2.2 6.2-1.8 0.2 0.3 0.1 0.6 0.1 1zm-0.7 0.2c0-0.7-0.2-0.4-0.7-0.1-1.4 0.6-2.9 1-4.3 1.3-3 0.6-6.1 0.8-9.1 1.2-2.9 0.4-5.8 0.7-8.7 0.7-1.2 0-2.2-0.2-3.3-0.4q-0.4 0-0.7 0.1c-0.6 0.1-1 0.4-1.1 1-0.1 1 0.2 2.1 0.5 3 0.6 1.9 1.6 3.6 2.8 5.1 2.4 3.1 5.6 6.5 9 8.5q0.3-0.7 0.7-1.4c0.3-0.6 0.6-1.4 1-1.8 0.5-0.4 0.8-0.3 1.4-0.1 1.1 0.5 2.6 1.5 3.5 2.7 4.7-5.6 7.1-13 9-19.8z"/>
		<g id="&lt;Group&gt;">
			<path id="&lt;Path&gt;" class="s18" d="m288.4 37.7c-2.4-1.9-5-3.5-7.6-5.1 0-0.1-0.1-0.3-0.3-0.3q-0.4-0.2-0.8-0.3c-3.3-1.8-6.7-3.4-10.2-4.8-0.1-0.1-0.2 0.1-0.1 0.1 2.8 1.3 5.4 2.6 8 4.1-2.9-0.7-6.1-1.1-9.1-0.9 0.3-0.5 0.3-1.1 0.5-1.5 0.2-0.7 0.5-1.3 0.6-1.9 0-0.1-0.1-0.1-0.1-0.1-0.5 0.5-0.7 1.1-0.9 1.7-0.2 0.6-0.5 1.3-0.4 1.9q0 0 0 0c0 0.1 0 0.2 0.1 0.2 4 1 8.1 1 12.1 2.2q4.1 2.4 8 4.9c0.2 0.1 0.3-0.1 0.2-0.2z"/>
			<path id="&lt;Path&gt;" class="s18" d="m254 28.4q-0.1 0-0.1-0.1 0 0.1-0.1 0.1-0.1 0-0.2 0 0 0 0 0c-1.7 0.3-3.3 1.1-4.8 1.9-2 1-3.9 1.9-5.7 3.1-0.5-0.8-1.2-1.7-1.9-2.4 4.6-1.9 9.1-3.1 14.1-3.7 0.1 0 0.1-0.2 0-0.2-4.9 0.4-9.9 1.6-14.4 3.7-0.1-0.1-0.3 0.1-0.2 0.3 0.6 1 1.4 2 2.1 2.9 0.2 0.3 0.7-0.1 0.5-0.3q0 0 0-0.1c1.6-0.6 3.2-1.4 4.8-2.2 1.8-1 3.9-1.6 5.7-2.5 0.6 0 1.2 0.1 1.7 0.2 0.6 0.1 1.2 0.4 1.8 0.4 0.3 0 0.4-0.5 0.2-0.6-1-0.5-2.4-0.6-3.5-0.5z"/>
		</g>
		<path id="&lt;Path&gt;" class="s16" d="m255.6 86.5c0 1.3 0.2 2.7 0.2 4 0 1.3-0.2 2.7-0.1 4 0 0.2 0.3 0.2 0.3 0 0.5-2.5 0.3-5.5-0.1-8-0.1-0.2-0.3-0.1-0.3 0z"/>
		<path id="&lt;Path&gt;" class="s16" d="m281.9 81.7c-0.6 3.7-0.3 8.6 1 12.2 0.1 0.1 0.4 0.1 0.3-0.1-0.1-2-0.6-4-0.7-6-0.2-2-0.1-4-0.3-6 0-0.2-0.3-0.3-0.3-0.1z"/>
		<g id="&lt;Group&gt;">
			<path id="&lt;Path&gt;" class="s13" d="m255.9 91.1c-1.4 0-2.8 0.1-2.9 1.8-0.2 2.9 13 2.6 14.2 2.6 3.2 0.1 16.3 1.1 18.3-2.4 0.8-1.5 0.2-2.7-1.3-3.1-0.6-0.1-0.9 0.8-0.3 1q-0.8 3.2-3.9 2.7-2.3 0.4-4.6 0.6-3.5 0.2-7 0.2-3.5 0-7-0.2-1.2-0.1-2.4-0.2-3.2 0.7-3.1-2.7c0.2 0 0.2-0.3 0-0.3z"/>
			<path id="&lt;Path&gt;" class="s13" d="m268.6 103.4q-0.1-2-0.1-4c0-1.2 0.2-2.4-0.1-3.6-0.2-0.6-1-0.4-1 0.2-0.2 1.1 0.1 2.1 0.3 3.2 0.3 1.4 0.5 2.8 0.7 4.2 0 0.1 0.2 0.1 0.2 0z"/>
		</g>
		<path id="&lt;Path&gt;" class="s20" d="m137.3 112q-20.4-16.5-41.1-32.4c-0.1-0.1-0.2 0-0.2 0.1q20.8 16.1 41.2 32.8 0-0.3 0.1-0.5z"/>
		<path id="&lt;Path&gt;" class="s20" d="m132.5 111.2q0.6 0 0.9 0.2c0.1-0.1 0.1-0.3-0.1-0.5q-18.2-15.6-36.8-30.6c-0.5-0.4-1.2 0.2-0.7 0.6q18.4 14.9 36.4 30.3 0.2 0 0.3 0z"/>
		<path id="&lt;Path&gt;" class="s20" d="m142.6 122c0.8 0.8 2.1 1.9 3.2 2.3 0.7 0.2 0.9-0.1 1.3-0.6 0.2-0.3 0.5-0.6 0.6-0.9 0.1-0.4 0-0.8-0.3-1-0.1 0-0.2-0.1-0.2 0q0 0.1 0 0.1c0.3 1.1-0.6 2.5-1.7 1.6-0.9-0.6-1.7-1.4-2.6-1.8-0.2-0.1-0.4 0.1-0.3 0.3z"/>
		<path id="&lt;Path&gt;" class="s20" d="m143.3 118.1c0.5 0.9 1.3 1.7 2 2.4 0.7 0.6 1.4 1.4 2.3 1.7 0.1 0.1 0.2-0.1 0.1-0.2-0.5-0.8-1.4-1.4-2.1-2-0.7-0.7-1.3-1.5-2.1-2.1-0.1-0.1-0.2 0.1-0.2 0.2z"/>
		<path id="&lt;Path&gt;" class="s17" d="m207.7 145.6q0-0.2 0-0.4c0-0.1-0.1-0.1-0.1 0q0 0.2 0 0.4c0 0 0.1 0 0.1 0z"/>
		<path id="&lt;Path&gt;" class="s21" d="m249.2 302.7c-8.4 4.2-17.7 7-25.9 11.5-0.3 0.1-0.1 0.6 0.2 0.4 8.4-4.4 17.7-7 25.9-11.7 0.1-0.1 0-0.3-0.2-0.2z"/>
		<path id="&lt;Path&gt;" class="s22" d="m223.1 314.5c-0.8 2-0.9 4.9 0.2 6.8 0.1 0.1 0.3 0 0.3-0.2-0.2-1.1-0.6-2.1-0.6-3.2-0.1-1.1 0.1-2.2 0.4-3.3 0-0.2-0.2-0.2-0.3-0.1z"/>
		<path id="&lt;Path&gt;" class="s23" d="m223.8 322c7.2 2.1 15.7 2.1 23.1 1.3 7.5-0.8 13.3-5.7 20.5-6.9 0.3 0 0.2-0.5-0.1-0.5-6.5 0.5-11.9 5.4-18.4 6.4-7.9 1.3-17.3 1.3-25.1-0.6-0.2-0.1-0.3 0.3 0 0.3z"/>
		<path id="&lt;Path&gt;" class="s23" d="m266.9 317.1c2.4 0.3 5 0.5 7.4 0.5 0.2 0 0.3-0.4 0-0.4-2.4-0.3-4.9-0.4-7.3-0.4-0.2 0-0.2 0.2-0.1 0.3z"/>
		<path id="&lt;Path&gt;" class="s22" d="m274.4 317.6c0.8-1.9 1.9-4.7 1.4-6.8-0.1-0.1-0.3-0.1-0.3 0-0.3 1-0.2 2.1-0.4 3.1q-0.4 1.8-1.1 3.4c-0.2 0.3 0.3 0.6 0.4 0.3z"/>
		<path id="&lt;Path&gt;" class="s21" d="m275.5 311.1c-0.4-1.2-1-2.4-1.4-3.7-0.4-1.3-0.6-2.6-1-3.9-0.1-0.3-0.6-0.2-0.6 0.1 0.2 2.6 1.4 5.5 2.6 7.7 0.1 0.2 0.5 0.1 0.4-0.2z"/>
		<path id="&lt;Path&gt;" class="s21" d="m223.5 316.5c4.3 5.5 18.2 4.2 23.9 2.2 5.1-1.7 9.5-4.9 15-5.6 4.4-0.5 8.5 0.4 12.6-1.9 0.3-0.1 0-0.5-0.3-0.4-4.4 2.1-7.9 1.1-12.4 1.6-2.9 0.4-5.6 1.5-8.2 2.8-4.5 2.1-8.7 4.1-13.9 4.4-4.4 0.3-13.2 0.3-16.5-3.2-0.1-0.1-0.3 0-0.2 0.1z"/>
		<path id="&lt;Path&gt;" class="s21" d="m254.3 303.3c4.1 1.1 7 3.9 10.4 6.1 0.2 0.2 0.5-0.2 0.3-0.3-2.9-2.3-6.7-5.9-10.6-6.1-0.2 0-0.2 0.3-0.1 0.3z"/>
		<path id="&lt;Path&gt;" class="s21" d="m264.5 309.5c1.9-2.5 4-4.5 6.6-6 0.3-0.2 0-0.8-0.3-0.6-2.6 1.5-5 3.7-6.7 6.3-0.1 0.2 0.2 0.5 0.4 0.3z"/>
		<path id="&lt;Path&gt;" class="s22" d="m329.7 330.9c-0.5 0.9-0.6 2.1-0.7 3.1-0.1 1.3-0.2 2.5 0 3.8 0 0.2 0.3 0.1 0.4-0.1 0.1-1.1 0-2.3 0.1-3.4 0.1-1.1 0.4-2.3 0.3-3.4 0-0.1-0.1-0.1-0.1 0z"/>
		<path id="&lt;Path&gt;" class="s22" d="m291.4 335.9c0 1.2 0.2 2.3 0.7 3.5 0.3 0.8 0.7 1.7 1.7 1.8 0.2 0 0.3-0.3 0.1-0.4-1.6-0.7-2-3.4-2.1-4.9 0-0.3-0.5-0.3-0.4 0z"/>
		<path id="&lt;Path&gt;" class="s24" d="m293.6 341.1c11.5 3.1 25.4 3.5 35.6-3.7 0.4-0.2 0.1-0.8-0.3-0.5-11.8 6.4-22.5 5.5-35.3 3.9-0.2 0-0.2 0.2 0 0.3z"/>
		<path id="&lt;Path&gt;" class="s21" d="m291.8 335.7c1.7-4.6 3.3-10.2 3-15.2 0-0.2-0.3-0.3-0.3-0.1-1.1 5.2-1.6 10.2-3.1 15.2-0.1 0.3 0.3 0.4 0.4 0.1z"/>
		<path id="&lt;Path&gt;" class="s21" d="m319 322.9c1.1 1.8 3.3 3.3 5 4.6 1.7 1.3 3.5 2.7 5.5 3.5 0.2 0.1 0.4-0.2 0.2-0.3-1.8-1.5-3.9-2.5-5.8-4-1.6-1.2-3-2.8-4.7-3.9-0.1-0.1-0.2 0-0.2 0.1z"/>
		<path id="&lt;Path&gt;" class="s25" d="m285.9 141.3c6.2-4 12.4-7.6 19-10.8 0.3-0.1 0.1-0.5-0.2-0.4-6.7 2.5-13.4 6.4-19 10.9-0.1 0.1 0.1 0.4 0.2 0.3z"/>
		<path id="&lt;Path&gt;" class="s25" d="m298.6 161.4c-3.9-6.8-8.5-13.3-12.8-19.8-0.1-0.3-0.6 0-0.4 0.2 4.2 6.7 8.2 13.5 12.8 19.9q0.2-0.2 0.4-0.3z"/>
		<path id="&lt;Path&gt;" class="s25" d="m326.4 121.7c3.1-1.2 6.7-2 9.6-3.7 0.2-0.2 0.1-0.5-0.2-0.5-3.2 1.1-6.6 2.3-9.6 3.9-0.2 0.1-0.1 0.4 0.2 0.3z"/>
		<path id="&lt;Path&gt;" class="s25" d="m335.7 117.8c3.2 10.6 4.6 21.6 6.3 32.5 0.1 0.3 0.7 0.2 0.6-0.2-1.8-10.9-3.3-21.8-6.5-32.4-0.1-0.2-0.4-0.1-0.4 0.1z"/>
		<path id="&lt;Path&gt;" class="s25" d="m334.9 154c2.7-0.5 6-1.6 8.2-3.4 0.1-0.1 0-0.3-0.2-0.3-1.1 0.5-2.3 1.2-3.4 1.7-1.6 0.7-3.1 1.2-4.7 1.8-0.1 0-0.1 0.2 0.1 0.2z"/>
		<path id="&lt;Path&gt;" class="s25" d="m336.8 122.1c1.8 0 3.8 0.3 5.5-0.1 0.2 0 0.2-0.3 0-0.3-1.7-0.4-3.7-0.1-5.5-0.1-0.3 0-0.3 0.5 0 0.5z"/>
		<path id="&lt;Path&gt;" class="s25" d="m342.3 121.7c-1.1 5.4-1.8 11-2.1 16.4 0 0.4 0.5 0.4 0.6 0 0.4-5.4 1.2-10.8 1.9-16.3 0.1-0.2-0.3-0.4-0.4-0.1z"/>
		<path id="&lt;Path&gt;" class="s22" d="m292 336.3c7.4 1.4 15.1 1.3 22.6 0.4 5-0.6 11.8-1.1 15.2-5.5 0.2-0.2-0.3-0.6-0.5-0.3-3.8 4.8-13.5 5.3-19.1 5.8-6.1 0.5-12.1 0-18.2-0.5-0.1 0-0.1 0.1 0 0.1z"/>
		<path id="&lt;Path&gt;" class="s17" d="m212.4 142.8q-0.2 0-0.3 0c-0.1 0-0.1 0 0 0q0.1 0 0.3 0.1c0 0 0-0.1 0-0.1z"/>
		<g id="&lt;Group&gt;">
			<path id="&lt;Path&gt;" class="s17" d="m277.9 40.8c0.3 1.8-0.5 3.4-1.8 3.5-1.3 0.2-2.5-1.1-2.8-2.9-0.2-1.8 0.6-3.4 1.9-3.5 1.3-0.2 2.5 1.1 2.7 2.9z"/>
			<g id="&lt;Group&gt;">
				<path id="&lt;Path&gt;" class="s0" d="m279 41.7c-0.8 0.6-2.5 0.3-2.7-0.5-0.2-0.6 0.8-1.5 1.4-1.5q0.1 0.1 0.3 0.1 0.6 0.4 1.1 0.8 0.2 0.1 0.3 0.2 0 0.2 0 0.3 0 0.4-0.4 0.6z"/>
				<path id="&lt;Compound Path&gt;" fill-rule="evenodd" class="s17" d="m277.9 42.2q-0.5 0-0.9-0.2c-0.5-0.1-0.8-0.4-0.9-0.7 0-0.3 0.1-0.7 0.3-1 0.4-0.4 0.9-0.7 1.3-0.7q0 0 0 0c0.1 0 0.3 0.1 0.4 0.1l1.1 0.8c0.1 0 0.2 0.1 0.3 0.3q0.1 0.1 0.1 0.3-0.1 0.5-0.5 0.8c-0.3 0.2-0.7 0.3-1.2 0.3zm-0.2-2.3c-0.3 0-0.8 0.3-1 0.6q-0.3 0.4-0.3 0.7 0.2 0.3 0.7 0.5c0.6 0.3 1.4 0.2 1.8-0.1q0.3-0.2 0.3-0.5 0-0.1 0-0.2 0-0.1-0.1-0.1l-1.2-0.8q-0.1-0.1-0.2-0.1 0 0 0 0z"/>
			</g>
		</g>
		<g id="&lt;Group&gt;">
			<path id="&lt;Path&gt;" class="s17" d="m253.9 39.6c0.3 1.8-0.6 3.4-1.9 3.6-1.2 0.1-2.5-1.2-2.7-3-0.3-1.7 0.6-3.3 1.9-3.5 1.2-0.2 2.5 1.1 2.7 2.9z"/>
			<g id="&lt;Group&gt;">
				<path id="&lt;Path&gt;" class="s0" d="m255 40.6c-0.8 0.5-2.5 0.3-2.7-0.6-0.2-0.6 0.8-1.5 1.4-1.4q0.1 0 0.2 0.1 0.6 0.4 1.2 0.7 0.1 0.1 0.2 0.3 0.1 0.1 0 0.2 0 0.4-0.3 0.7z"/>
				<path id="&lt;Compound Path&gt;" fill-rule="evenodd" class="s17" d="m253.9 41q-0.5 0-1-0.2c-0.4-0.1-0.7-0.4-0.8-0.7-0.1-0.3 0-0.6 0.3-1 0.3-0.4 0.8-0.7 1.2-0.7q0 0 0.1 0c0.1 0 0.2 0.1 0.3 0.1l1.2 0.8c0.1 0.1 0.2 0.2 0.3 0.3q0 0.2 0 0.3 0 0.5-0.5 0.8c-0.3 0.2-0.7 0.3-1.1 0.3zm-0.3-2.3c-0.3 0-0.7 0.3-1 0.6q-0.3 0.4-0.2 0.7 0.1 0.3 0.6 0.5c0.7 0.3 1.4 0.2 1.9-0.1q0.3-0.2 0.3-0.5 0-0.1 0-0.2-0.1-0.1-0.2-0.1l-1.2-0.8q-0.1-0.1-0.2-0.1 0 0 0 0z"/>
			</g>
		</g>
		<path id="&lt;Path&gt;" class="s13" d="m289.9 28c1.6 12.3 4.2 24.4 5.3 36.7 1 11.6 0.1 23.4 1.4 34.8 0 0.4 0.6 0.6 0.7 0.1 2-11.5 0.3-24.5-0.9-36.1-1.1-11.8-2.6-24.1-6.2-35.5-0.1-0.2-0.3-0.1-0.3 0z"/>
		<g id="&lt;Group&gt;">
			<path id="&lt;Path&gt;" class="s26" d="m255.6 67.9l2.6 4.1c0 0 2.9 1.2 6.2 0.9 3.3-0.3 7.6-1.7 7.6-1.7 0 0-1.1 2.7-2.1 3.8-1 1-3.3 2.1-3.3 2.1 0 0-4.3 0.6-6.5-1.7-2.3-2.4-3.6-3.7-3.6-3.7l-2.3-4.2z"/>
			<path id="&lt;Path&gt;" class="s27" d="m258 67.9l1.8 4.4c0 0 3.5 0.4 5.2 0.3 1.7 0 5.1-1 5.1-1l1.3-5.2c0 0-6.5 1.5-8.9 1.5-2.4 0.1-4.5 0-4.5 0z"/>
			<path id="&lt;Path&gt;" class="s28" d="m251.5 67c8.2 2.4 18.6 1.6 26.1-2.6 0.3-0.2 0.1-0.7-0.2-0.6-8.9 3-16.5 3.9-25.8 3-0.2-0.1-0.2 0.2-0.1 0.2z"/>
			<path id="&lt;Path&gt;" class="s29" d="m257.9 72.3c4.7 1.5 9.9 1.3 14.4-1.1 0.3-0.2 0.1-0.7-0.2-0.6-4.6 1.9-9.3 2.5-14.2 1.5-0.1-0.1-0.2 0.1 0 0.2z"/>
			<path id="&lt;Path&gt;" class="s28" d="m253.8 67.3c2.4 4.7 6.3 11 12.5 9.9 5-0.9 6.5-6.6 7.4-10.8 0-0.2-0.3-0.2-0.3-0.1-1.1 4.4-2.7 10.4-8.2 10.6-5.6 0.1-8.8-5.6-11-9.8-0.2-0.3-0.6 0-0.4 0.2z"/>
		</g>
		<path id="&lt;Path&gt;" class="s16" d="m247.5 37.8c3.8-1.2 7.6-1.6 11.5-0.6 0.4 0.1 0.5-0.4 0.2-0.5-4-0.9-8.1-0.8-11.8 0.9-0.1 0.1-0.1 0.2 0.1 0.2z"/>
		<path id="&lt;Path&gt;" class="s16" d="m272 37.8c4.3 0.3 7.5 1.5 11.4 3.4 0.2 0.1 0.5-0.2 0.3-0.4-3.1-2.5-7.9-3.5-11.7-3.5-0.4 0-0.3 0.5 0 0.5z"/>
		<path id="&lt;Path&gt;" class="s16" d="m270.6 51.1c-1.5-0.3-3.4 2.1-4.7 2.6-1.8 0.7-3.7 0.8-5.4 0.2-3.9-1.2-1.8-5-1.1-7.7 0.8-3 0.6-6 1.1-9 0.6-3.6-1.4-7.5-4.2-9.7-0.5-0.3-1.2-0.6-1.8-0.2 1.3 1.4 3.2 2.1 4.2 3.9 0.8 1.4 1.4 3.1 1.5 4.7 0.2 4.5-1.1 9.3-2.6 13.6-0.6 1.9-1.3 3.5 0.7 4.7 3.1 1.7 8 1 10.5-1.3 0.4-0.4 1.1-0.8 1.6-0.5 0.2 0.1 0.3 0.3 0.4 0.4q0.7 0.8 1.1 1.8c0.1-0.8-0.3-3.2-1.3-3.5z"/>
		<path id="&lt;Path&gt;" class="s16" d="m130.9 110.6c-3.3-0.2-3.6 4.9-2.6 7.1 1.6 3.4 6.3 4.7 9.8 4.8 2 0.1 6.5-0.3 6.1-3.2-0.2-2.1-2.8-3.8-4.3-4.9-2.7-1.9-5.7-3.1-9-3.9-0.2 0-0.3 0.3-0.1 0.4 3.8 0.8 7.3 2.5 10.3 5 1.6 1.3 3.8 3.7 1.6 5.5-1 0.7-2.9 0.8-4 0.8-2.4 0-5.2-0.6-7.3-1.8-1.6-0.9-2.8-2.2-3.1-4.1-0.4-1.7-0.1-5.6 2.6-5.4 0.2 0 0.2-0.3 0-0.3z"/>
		<path id="&lt;Path&gt;" class="s16" d="m140.7 123c0.8 0.3 1.6 0.8 2.3 1.3q0.4 0.4 0.7 0.8c0.8 1.1 0.4 2.3-0.8 3-1.2 0.6-2.7 0.6-4.1 0.5-1.8-0.1-3.5-0.8-4.9-2.1-0.7-0.7-1.4-1.7-1.7-2.8-0.2-0.6-0.7-2.4-0.3-2.7 0.2-0.2 0-0.5-0.2-0.4-1.4 0.7 0.6 4.6 1.1 5.3 1.4 2 3.6 3.1 6 3.2 1.9 0.1 4.4 0.4 5.4-1.3 1.5-2.2-1.2-4.1-3-5-0.6-0.3-1.2-0.6-1.9-0.5 0.5 0.3 0.9 0.5 1.4 0.7z"/>
		<path id="&lt;Path&gt;" class="s16" d="m147.3 133.8q-0.5-0.8-1.1-1.2-0.2 0.2-0.4 0.3c1.1 0.8 1.6 2.2 0.6 3.9-1.3 2.2-4.7 4.3-6.9 2.2-0.6-0.6-1-1.2-1.7-1.8-1.3-1.2-1.6-2.4-1.3-4.3q0-0.1 0-0.3-0.1-0.1-0.2-0.2c-0.2 1-0.6 2-0.4 2.9 0.3 1.4 1.4 1.9 2.3 2.8 1.1 1.1 1.7 2.2 3.3 2.3 1.1 0 2.1-0.5 3-1.1 1.5-1.1 4.2-3.5 2.8-5.5z"/>
		<path id="&lt;Path&gt;" class="s30" d="m160.5 121.3c-0.9 1.2-1.5 2.5-2 3.9-0.4 0.8-0.8 1.8-1 2.8q0.2 0.2 0.3 0.4c0.6-1 0.9-2.4 1.4-3.5 0.4-1 0.8-2 1.5-2.9q0.1-0.1 0.1-0.2c0-0.2-0.2-0.3-0.3-0.5z"/>
		<g id="&lt;Group&gt;">
			<path id="&lt;Path&gt;" class="s31" d="m283.2 167.3q0 0 0 0c0.1-1.4 2.2-6.2 4.1-4 1 1.2 1.7 3.2 2.4 5.9 0.8 2.6 0.8 7.4 0.8 7.4-0.3 1.4-0.4 2.8-0.5 4.1q-0.1 0.9-0.3 1.8c-0.1 0.4 0 1-0.3 1.2-0.4 0.3-0.9 0.1-1.2-0.2-0.3-0.3-0.5-0.6-0.7-1-0.1-0.2-0.9-1.9-1.1-1.9q0.7 0 1.3-0.2c0.2 0 0.4-0.1 0.6-0.2 0.6-0.4 0.4-1.8 0.4-2.4q0.1-2.7-0.4-5.3c-0.3-1.3-0.5-2.8-1.2-4-0.6-1-1.2-1.8-2.4-1.6-0.5 0.1-1 0.2-1.5 0.4z"/>
			<path id="&lt;Path&gt;" class="s31" d="m157.9 128.2l1.2-3.8 1.9-2.8 0.2 9.7c0 0-3.4-2.2-3.3-3.1z"/>
			<path id="&lt;Path&gt;" class="s31" d="m156.5 140.5l-0.3 5.2c0 0-0.3 4.8 0.7 4.3 1.1-0.4 2.1-0.8 2.7-2.7 0.6-2 0.5-4 0.5-4z"/>
			<path id="&lt;Path&gt;" class="s31" d="m250.1 4.8c0 0-0.9 1.6 2.2 1.2 3.1-0.4 14.9-0.1 25.6 5.4 10.7 5.5 18.4 11.3 18.4 11.3l0.5 2c0 0-10-7-17.6-10.6-7.6-3.6-17.8-5.9-17.8-5.9l-8.8-0.1-6.8 1.4c0 0 1.4-3.4 4.3-4.7z"/>
			<path id="&lt;Path&gt;" class="s31" d="m160.6 121.5c12.1 6.8 27 13.6 41 14.8 0.4 0 0.4-0.5 0.1-0.6-6.5-2.3-13.4-3.5-19.9-5.7-7.2-2.4-14.3-5.3-20.9-9-0.3-0.1-0.6 0.3-0.3 0.5z"/>
			<path id="&lt;Path&gt;" class="s31" d="m158.5 150.4c19.1-2.1 37.4 7.7 56.4 4.5 0.3 0 0.2-0.5-0.1-0.4-19.1 2.8-37.2-6.9-56.3-4.5-0.2 0.1-0.2 0.5 0 0.4z"/>
			<path id="&lt;Path&gt;" class="s31" d="m201.4 136.3c6.5-5 12.9-10.3 18.3-16.4 2.7-3.1 4.9-6.6 7.8-9.4 3.3-3.1 6.7-3.8 11-4.6 6.5-1.3 17.2-4 14.7-12.9-0.2-0.4-0.8-0.2-0.7 0.2 2.2 12.8-16.7 10.2-23.5 15-4.6 3.3-7.5 8.7-11.4 12.8-5.1 5.4-10.7 10.2-16.5 14.8-0.3 0.2 0 0.7 0.3 0.5z"/>
			<path id="&lt;Path&gt;" class="s31" d="m214.9 154.7c7.2-5 13.6-10.7 21.7-14.4 0.1 0 0-0.2-0.1-0.2-8.2 2.9-14.9 9.2-21.7 14.4-0.1 0.1 0 0.2 0.1 0.2z"/>
			<path id="&lt;Path&gt;" class="s31" d="m245.7 9.4c6.6-10.3 21.3-9.5 31.3-5.6 10.2 4 17.2 10.6 19.9 21.3 0.1 0.3 0.4 0.2 0.4-0.1-2.8-11.6-11-18.5-22.1-22.3-9.5-3.2-24-3.4-29.6 6.7 0 0.1 0 0.1 0.1 0z"/>
			<path id="&lt;Path&gt;" class="s31" d="m285.8 92.2c0.5 5.4 0.2 7.5 5.6 8.6 7.2 1.4 14.4 3.3 21.6 4.6 0.5 0.1 0.7-0.6 0.2-0.7-5-1.9-10.6-3.3-15.9-4.1-2-0.3-4.1-0.4-6.2-0.9-3.9-0.8-4.5-3.6-4.9-7.5 0-0.2-0.4-0.2-0.4 0z"/>
			<path id="&lt;Path&gt;" class="s31" d="m267.3 206.3c6.6 17.3 11.5 34.8 15.8 52.8 0.1 0.1 0.3 0.1 0.3-0.1-3.5-18-9-35.8-15.8-52.7-0.1-0.2-0.4-0.1-0.3 0z"/>
			<path id="&lt;Path&gt;" class="s31" d="m312.4 286.3c2.4-31.6 1.1-63.9-4.5-95.1-0.1-0.6-1-0.3-0.9 0.2 4.5 31.6 6.4 63 5 94.9 0 0.2 0.4 0.2 0.4 0z"/>
			<path id="&lt;Path&gt;" class="s31" d="m313.1 259.1c4.2 16.2 8.8 32.3 13.3 48.5 0.1 0.2 0.4 0.1 0.3-0.1-4.1-16.2-8.4-32.5-13.4-48.5 0-0.1-0.3 0-0.2 0.1z"/>
			<path id="&lt;Path&gt;" class="s31" d="m326.5 307.9c-0.9 1.5-2 2.8-3.2 4-1 1.1-2.4 2-3.4 3.2-0.2 0.2 0 0.4 0.2 0.3 1.5-0.7 2.7-2.1 3.8-3.3q1.7-1.8 3-3.9c0.1-0.3-0.2-0.5-0.4-0.3z"/>
			<path id="&lt;Path&gt;" class="s31" d="m317.9 301c1.1 7.1 1.6 13.7 1.7 20.9 0.1 0.2 0.4 0.2 0.4 0 0.8-6.8 0-14.4-1.9-20.9 0-0.2-0.2-0.1-0.2 0z"/>
			<path id="&lt;Path&gt;" class="s31" d="m328.3 159.9c-3.2-2.6-7.6-4.6-11.7-5.2-0.3 0-0.4 0.4-0.1 0.5 4.2 1.2 7.9 2.6 11.7 4.9 0.1 0.1 0.2-0.1 0.1-0.2z"/>
			<path id="&lt;Path&gt;" class="s31" d="m307.7 192.1c0.8-1.9 1.1-3.9 1.5-5.9 0.3-1.7 0.8-3.5 0.7-5.2-0.1-0.4-0.6-0.5-0.7-0.1-0.7 1.9-0.7 4-1 5.9-0.3 1.7-0.8 3.5-0.9 5.2 0 0.3 0.3 0.3 0.4 0.1z"/>
			<path id="&lt;Path&gt;" class="s31" d="m201.6 136.6c0.9 2 1.6 4.1 2.7 5.9 0.1 0.2 0.3 0.1 0.3-0.1-0.6-2-1.7-4-2.6-6-0.1-0.2-0.5 0-0.4 0.2z"/>
			<path id="&lt;Path&gt;" class="s31" d="m241.7 20.9c11.7-5.6 25.4-4.5 37 0.8 10.1 4.6 18.1 10.1 23.6 19.9 3.2 5.5 5.9 11.4 7 17.8 1 5.8 0.2 11.7 0.2 17.6 0 10.1 4.4 19.1 6 28.9 0.1 0.5 0.9 0.4 0.9-0.1-0.3-5.7-2.5-10.9-4.1-16.4-2.3-7.8-1.4-15.1-1.5-23.1 0-11.7-5.5-24.4-13.1-33.3-5.5-6.6-15.8-11.4-23.8-14-10.6-3.4-22.3-3.6-32.4 1.5-0.3 0.2 0 0.6 0.2 0.4z"/>
			<path id="&lt;Path&gt;" class="s31" d="m312.5 105.1c7.4 7.6 13.8 14.7 15.8 25.5 1.6 8.7 3.8 17.5 7.5 25.7 2.3 5.1 5.5 10.9 0.4 15.6-3.2 3-7.7 4.3-11.8 5.3-4.4 1-8.8 1.8-13.2 2.7-7 1.4-14.1 3.7-21.3 2.6q-0.3 0.7-0.7 1.4c2.9-0.6 5.8-0.2 8.7-0.6 3-0.4 5.9-1 8.8-1.5 6.4-1.1 13-2.2 19.3-3.9 5.8-1.5 14-4.6 14.3-11.7 0.1-4.3-2.6-8.3-4.2-12-2.7-6.5-4.8-13.7-6.1-20.7-1.1-5.9-2-11-5.4-16.1-3.2-4.8-7.1-9.3-11.5-12.9-0.5-0.3-1 0.2-0.6 0.6z"/>
			<path id="&lt;Path&gt;" class="s31" d="m316.4 153.9c-0.2-0.3-0.2-0.7-0.4-1.1-1-2.3-1.8-4.7-2.8-7.1-1.5-3.4-3.2-6.7-4.9-10.1-1.4-2.8-2.8-5.7-4.2-8.5-0.4-0.8-0.8-1.7-1.1-2.5-0.1-0.4-0.7-0.2-0.6 0.1 1.8 10.7 11.7 19.6 12 30.6q0 0.1 0 0.1c-6.2 2.6-12.6 4.9-19.3 6.3-3 0.7-6.1 0.8-9.1 1.6 0.2-0.1 1.1 0.7 1.3 0.8 0.5 0.3 0.7 0.9 1 1.4 0-1.4 1.8-1.5 2.8-1.7 2.3-0.4 4.5-0.9 6.7-1.4 2.9-0.7 5.7-1.4 8.5-2.4 1.9-0.8 3.8-1.4 5.7-2.2 1-0.4 1.9-1 2.8-1.6 0.9-0.6 2-0.9 3.1-1.1-0.4-0.2-0.8-0.4-1.1-0.7q-0.3-0.2-0.4-0.5z"/>
			<path id="&lt;Path&gt;" class="s31" d="m235.1 124.4c0.2 19.9-0.3 39.1 4.8 58.4 2.7 10.4 5.1 20.3 4.6 31.2-0.5 10.2-2.5 20.2-3.4 30.3-0.9 10.2-0.6 20.4-1.3 30.7-0.4 4.7-0.8 9.5-0.8 14.3 0 2.6-0.8 7.7 0.6 10 1 1.6 5.4 3 7.3 3.6 4 1.2 8 0.6 12 0.3 11.1-0.8 21.4 1.4 31 7 0.5 0.2 0.9-0.5 0.5-0.8-6.6-4.1-13.9-6.6-21.7-7.4-7.2-0.7-25.2 3.9-28-5.5-1.3-4.2-0.2-10 0.1-14.3 0.3-4.8 0.7-9.6 1-14.4 0.6-9.8 0.2-19.6 1.4-29.3 1.1-9.7 2.8-19.4 2.8-29.1 0-8.6-2-16.5-4.3-24.7-2.5-9.4-4.7-18.5-5.1-28.1-0.4-10.8-0.8-21.5-1.2-32.2 0-0.1-0.3-0.1-0.3 0z"/>
			<path id="&lt;Path&gt;" class="s31" d="m291.4 284.2c-0.3 7.3-0.6 14.6-1.4 21.9-0.4 4-2.3 8.7 0.6 12 6.4 7.2 20.6 7.7 28.9 5 0.4-0.1 0.2-0.6-0.1-0.5-9.1 2-31.2 2.1-29.2-12.1 1.1-8.7 1.7-17.5 1.6-26.3 0-0.3-0.4-0.3-0.4 0z"/>
		</g>
		<path id="&lt;Path&gt;" class="s2" d="m283.7 167c-0.4 0-0.8 0.1-1.2 0.1-1.1-0.2-2.3-0.7-3.4-0.9-2.5-0.6-5 0.1-7.3 1.1-0.1 0.1-0.3 0.2-0.5 0.2-0.3 0.1-0.5 0-0.8-0.1-2.3-0.8-5.4-1.9-7.6-0.4q-0.4 0.2-0.8 0.6c-0.8 0.8-1.3 1.7-2.1 2.5-0.6 0.7-1.6 1-2.2 1.8-0.2 0.2-0.4 0.4-0.4 0.7-0.5 1.7-2.8 3-2.7 5.1v0.9l1.1 1.3-1 1.9c0 0-0.9 0.7-0.6 1.6 0.2 1 1.1 2 1.1 2l1.3 0.5c0 0 6.3-2.7 8.1-2.6 1.9 0 4.6-1.3 4.6-1.3 0 0-1 3.4-0.4 5.1 0.5 1.7 1.5 2.4 1.5 2.4h1c0 0 1.2-2.2 3.2-3.7 2-1.5 6.1-3.9 6.1-3.9l7.9-0.5c1.3-0.1 0.4-5.5 0.3-6.2-0.4-2.9-0.6-6.4-3.2-8.2-0.6-0.4-1.3-0.2-2 0z"/>
		<path id="&lt;Path&gt;" class="s16" d="m288.8 181.1c-2.3 0.1-4.8 0.2-7.1 0.6-0.6-0.4-0.9-1.4-1.3-2.1q0.2 0.6 0.3 1.2 0.1 0.2 0 0.3c0 0.2-0.2 0.3-0.4 0.4-2.5 1.4-5.2 3.1-7.2 5.3-0.5 0.5-1.1 1.9-1.7 2.3-0.8 0.6-1.7-0.7-2.1-1.5-0.4-0.9-0.4-2.1-0.3-3.1 0.3-1.6 1.2-3.1 2.6-4.1 0.3-0.2 0.7-0.4 1-0.6 0.5-0.3 0.5-0.6 0.6-1.1 1.2-3.7 4.8-6.3 8.4-7.5-1.1 0.4-2.1 0.4-3.2 0.8q-1.4 0.5-2.6 1.4c-1.6 1.3-2.7 3.2-3.2 5.2q0 0 0 0 0 0 0 0.1 0 0 0 0 0 0.2-0.1 0.4c-0.2 0.6-1 0.6-1.4 0.9q-0.7 0.6-1.2 1.3-0.2 0.2-0.3 0.4c-2.3 0.5-4.6 1-6.9 1.6q-1.9 0.4-3.6 1.1c-0.6 0.2-1.2 0.4-1.7 0.7-0.4 0.3-0.6 0.6-1.2 0.4-0.3-0.1-0.6-0.3-0.9-0.6-0.8-0.9-1.2-2.1-0.4-3.1 1.5-1.8 3.6-3 5.8-3.8 1.1-0.4 2.2-0.6 3.4-0.9 1.1-0.3 2.6-0.9 3.8-0.7-1.5-0.3-3 0.3-4.5 0.5-1 0.2-1.9 0.4-2.9 0.6-1.7 0.5-3.2 1.3-4.5 2.4-0.3-0.4-0.9-0.8-1-1-0.3-0.7 0.2-1.9 0.4-2.6 0.4-0.8 0.9-1.6 1.6-2.1 1.2-0.9 2.7-1.2 4.1-1.3 2.7-0.4 5.5 0.1 8.2 0.4-0.3-0.2-0.6-0.2-0.9-0.3-1.6-0.2-3.2-0.7-4.8-0.8-2.1-0.1-4.4 0.1-6.2 1.1 2.1-4.5 7-3.4 11-3.1q0.7 0.1 1.5 0c-1.1 2-0.4 3.6 0.3 6-0.6-2-0.5-4.1 0-6.1q0 0 0 0 0 0 0 0 0.1-0.4 0.3-0.8-0.4 0.4-0.6 0.9c-0.6 0-1.4-0.2-2-0.3-0.7-0.1-1.3-0.3-2-0.3-1.2-0.1-2.4-0.2-3.6-0.1q-1 0.2-1.9 0.5c1.2-2.2 2.7-3.6 5.4-3.5 2 0 3.8 0.7 5.5 1.6 1.2-0.7 2.4-1.4 3.8-1.6 0.8-0.1 1.5-0.3 2.4-0.3 1.5 0 3 0.6 4.5 0.9 0.4 0.1 0.9 0.3 1.4 0.2q-0.3-0.1-0.6-0.2-0.9-0.3-1.8-0.5c-0.5-0.1-1-0.4-1.5-0.5q-1-0.3-2-0.3c-2.1 0.1-4.1 0.8-5.9 1.6q0 0-0.1 0 0 0 0-0.1c-2.4-0.6-5.1-1.7-7.6-1-2 0.5-3.1 2.1-4 3.8q0 0.1 0 0.1c-1.3 0.7-2.4 1.8-3 3.2q0 0.1 0 0.2c-0.7 0.5-1.3 1.2-1.6 2.2-0.4 0.7-1 2.3-0.8 3.1q0.1 0.3 0.4 0.6c0.2 0.2 0.5 0.5 0.8 0.6q-0.5 0.5-1 1c-0.5 0.6-1 1.2-0.9 2 0.1 0.8 0.5 1.6 1 2.2 0.9 1 2 1.2 3.2 0.5 3.5-1.9 7.6-2.2 11.3-3.6q-0.6 1.1-0.8 2.3c-0.2 1.1-0.1 2.4 0.4 3.4 0.5 0.9 1.7 2.5 2.8 1.8 0.5-0.3 0.5-1 0.9-1.5q0.6-0.9 1.4-1.7c1.1-1.1 2.3-2 3.6-2.7 0.5-0.3 1-0.6 1.6-0.9q-0.1 0-0.1 0.1 0.6-0.4 1.3-0.6c0.5-0.1 0.9-0.1 1.3-0.1q2.3-0.1 4.5-0.4c1.2-0.1 2.5-0.4 3.6-0.9q-0.5 0-1 0.1z"/>
		<path id="&lt;Path&gt;" class="s16" d="m160.6 130.6c-0.8-0.9-2.5-1.6-2.8-2.9-0.2-0.6-0.3-1.3-0.4-1.9q-0.5-2.1-1.1-4c-0.8-2.6-1.8-5.1-3.4-7.3-0.7-0.9-1.1-1.1-2-1.5-2-1.1-5 0.3-7.2-1.3-1.3-0.9-2-3.9-3-4.2-1.6-0.4-3.1 0.9-3.8 2.2-0.7 1.2-0.8 3.4 0.9 3.6-0.1-0.7-0.4-1.4-0.5-2.2 0-0.7 0.2-1.2 0.6-1.9 0.3-0.3 0.6-0.6 0.9-0.7 0.9-0.4 1.7 0.2 2.3 0.7 0.5 0.5 0.9 1.5 1.4 2 1.6 1.7 3.4 2.2 5.6 2.5 2.2 0.2 3.7-0.4 5 1.8 0.6 1.2 1 2.5 1.5 3.8q0.8 2.2 1.6 4.4 0.4 1.2 0.8 2.3c0.2 0.7 0.2 1.3 0.4 2 0.2 0.8 0.8 1.1 1.4 1.6 0.5 0.5 1 1 1.6 1.4 0.2 0.1 0.4-0.2 0.2-0.4z"/>
		<path id="&lt;Path&gt;" class="s16" d="m159.9 142.6c-0.4-0.1-0.8-0.6-1.2-0.8q-0.7-0.5-1.4-0.9-0.9-0.7-1.9-1.3c-0.5-0.4-1-1-1.7-1.2-0.4-0.1-1.1 0-1.5 0q-1.6 0-3.1-0.1-1.6-0.1-3.1-0.4-0.2 0.3-0.5 0.5 4 0.7 8 0.6 0 0 0.1 0c0.9 0.8 2 1.5 3 2.2 1 0.7 2.1 1.6 3.2 2.2q0 0 0 0c0.2-0.2 0.2-0.5 0.1-0.8z"/>
		<path id="&lt;Path&gt;" class="s16" d="m133 126.2c-0.4 1.4 0.2 2.8 0.9 4 1.1 1.8 2.9 3.2 5 3.8 2 0.5 4.2 0.3 6.1-0.7 0.7-0.3 1.3-0.7 1.5-1.4 0.2-0.7-0.1-1.5-0.6-2-0.6-0.8-1.5-1.3-2.4-1.5 0.6 0.5 1.3 1 1.7 1.7 0.5 0.6 0.7 1.4 0.3 2.1-0.2 0.4-0.6 0.6-0.9 0.9-1.3 0.7-2.9 0.7-4.3 0.5-2.1-0.1-3.9-1.2-5.3-2.7q-0.8-1-1.3-2.1c-0.4-0.8-0.4-1.5-0.4-2.3 0-0.1-0.1-0.2-0.1-0.3-0.1 0-0.2 0-0.2 0.1z"/>
		<path id="&lt;Path&gt;" class="s18" d="m241.7 20.4c-2.9 0.7-0.9-3.1-0.7-3.7q0.6-1.2 1.3-2.4c0.6-1.2 1.3-2.5 1.8-3.8 0.1-0.2-0.2-0.3-0.3-0.1-0.9 1.5-1.7 3.1-2.5 4.7-0.5 1.1-1.4 2.4-1.6 3.6-0.3 1.5 0.6 2.5 2.1 2.1 0.2-0.1 0.1-0.4-0.1-0.4z"/>
		<path id="&lt;Path&gt;" class="s18" d="m244.3 10.4c10.5-4.4 23.8-0.9 33.7 3.6 3.9 1.8 7.6 3.9 11.1 6.2 1.8 1.1 3.7 2.2 5.3 3.5 3.5 3 4.3 4.6 3.2 8.3-0.2 0.6 0.7 0.8 0.8 0.3 1.1-3.6 1.9-4.9-0.9-7.5-5.3-4.8-12.7-8.6-19.1-11.5-9.6-4.3-24.3-8.8-34.2-3.2-0.2 0.1-0.1 0.4 0.1 0.3z"/>
		<path id="&lt;Path&gt;" class="s30" d="m160.5 121.3c0 5.9 0.2 11.8-0.4 17.8-0.1 1.4 0 11-3.5 9.4-0.6-0.3 0-7.1 0-7.9 0-0.3-0.4-0.3-0.5 0-0.1 3.3-0.1 6.6 0.1 9.9 0 0.1 0.1 0.2 0.2 0.2 7 1.6 5-26.1 4.6-29.4-0.1-0.4-0.5-0.4-0.5 0z"/>
		<path id="&lt;Path&gt;" class="s30" d="m287.8 164.2c-0.3-0.3-0.4-0.7-0.3-1 0.1-0.2 0.4-0.4 0.6-0.3-0.9-0.2-1.9-0.4-2.7 0.1-0.8 0.4-1.4 1.2-1.7 2.1-0.4 0.8-0.5 1.7-0.5 2.6 0.3 0 0.5-0.4 0.6-0.8 0.3-1.2 1.3-4.1 3.1-3 1.2 0.7 1.7 2.8 2 4.1 0.5 1.6 0.8 3.2 1 4.9 0.2 1.9 0.1 3.7 0 5.6 0 0.8 0.1 4.9-1 4.8-0.2 0-0.4-0.2-0.5-0.3q-0.7-0.5-1.2-1.2c0.2 0.7 0.6 1.5 1.3 2 0.2 0.2 0.5 0.3 0.8 0.2 0.4-0.1 0.7-0.6 0.8-1.1 0.4-1.7 0.4-3.6 0.5-5.4 0-1.9 0-3.8-0.2-5.7-0.2-1.6-0.5-3.2-1.1-4.6q-0.4-1.2-1-2.2c-0.1-0.2-0.3-0.5-0.5-0.8z"/>
		<path id="&lt;Path&gt;" class="s32" d="m289 142.6l9.7 16.4 7.6-2.1 1.5-3.7-5.8-19c0 0-12.7 6.3-13 8.4z"/>
	</g>
</svg>